ChauncyRegular_WeightMin.ufo
<glyph name="plus" format="1">
  <advance width="498"/>
  <unicode hex="002B"/>
  <outline>
    <contour>
      <point x="50" y="303" type="curve" smooth="yes"/>
      <point x="50" y="285"/>
      <point x="67" y="271"/>
      <point x="86" y="271" type="curve" smooth="yes"/>
      <point x="143" y="271"/>
      <point x="210" y="285"/>
      <point x="252" y="285" type="curve" smooth="yes"/>
      <point x="295" y="285"/>
      <point x="359" y="271"/>
      <point x="412" y="271" type="curve" smooth="yes"/>
      <point x="434" y="271"/>
      <point x="448" y="285"/>
      <point x="448" y="303" type="curve" smooth="yes"/>
      <point x="448" y="322"/>
      <point x="433" y="337"/>
      <point x="412" y="337" type="curve" smooth="yes"/>
      <point x="359" y="337"/>
      <point x="295" y="323"/>
      <point x="252" y="323" type="curve" smooth="yes"/>
      <point x="203" y="323"/>
      <point x="143" y="337"/>
      <point x="87" y="337" type="curve" smooth="yes"/>
      <point x="69" y="337"/>
      <point x="50" y="322"/>
    </contour>
    <contour>
      <point x="253" y="103" type="curve" smooth="yes"/>
      <point x="271" y="103"/>
      <point x="285" y="120"/>
      <point x="285" y="139" type="curve" smooth="yes"/>
      <point x="285" y="196"/>
      <point x="271" y="263"/>
      <point x="271" y="305" type="curve" smooth="yes"/>
      <point x="271" y="348"/>
      <point x="285" y="412"/>
      <point x="285" y="465" type="curve" smooth="yes"/>
      <point x="285" y="487"/>
      <point x="271" y="501"/>
      <point x="253" y="501" type="curve" smooth="yes"/>
      <point x="234" y="501"/>
      <point x="219" y="486"/>
      <point x="219" y="465" type="curve" smooth="yes"/>
      <point x="219" y="412"/>
      <point x="233" y="348"/>
      <point x="233" y="305" type="curve" smooth="yes"/>
      <point x="233" y="256"/>
      <point x="219" y="196"/>
      <point x="219" y="140" type="curve" smooth="yes"/>
      <point x="219" y="122"/>
      <point x="234" y="103"/>
    </contour>
  </outline>
</glyph>
<glyph name="period" format="2">
  <advance width="272"/>
  <unicode hex="002E"/>
  <outline>
    <contour>
      <point x="138" y="-15" type="curve" smooth="yes"/>
      <point x="166" y="-15"/>
      <point x="188" y="8"/>
      <point x="188" y="36" type="curve" smooth="yes"/>
      <point x="188" y="64"/>
      <point x="166" y="86"/>
      <point x="138" y="86" type="curve" smooth="yes"/>
      <point x="110" y="86"/>
      <point x="88" y="64"/>
      <point x="88" y="36" type="curve" smooth="yes"/>
      <point x="88" y="8"/>
      <point x="110" y="-15"/>
    </contour>
  </outline>
</glyph>
<glyph name="zero" format="1">
  <advance width="590"/>
  <unicode hex="0030"/>
  <outline>
    <contour>
      <point x="291" y="650" type="curve" smooth="yes"/>
      <point x="143" y="650"/>
      <point x="48" y="525"/>
      <point x="48" y="327" type="curve" smooth="yes"/>
      <point x="48" y="107"/>
      <point x="136" y="-15"/>
      <point x="291" y="-15" type="curve" smooth="yes"/>
      <point x="435" y="-15"/>
      <point x="541" y="104"/>
      <point x="541" y="327" type="curve" smooth="yes"/>
      <point x="541" y="528"/>
      <point x="441" y="650"/>
    </contour>
    <contour>
      <point x="434" y="286" type="curve" smooth="yes"/>
      <point x="434" y="103"/>
      <point x="379" y="36"/>
      <point x="306" y="36" type="curve" smooth="yes"/>
      <point x="206" y="36"/>
      <point x="153" y="131"/>
      <point x="153" y="361" type="curve" smooth="yes"/>
      <point x="153" y="514"/>
      <point x="196" y="599"/>
      <point x="279" y="599" type="curve" smooth="yes"/>
      <point x="377" y="599"/>
      <point x="434" y="502"/>
    </contour>
  </outline>
</glyph>
<glyph name="five" format="1">
  <advance width="519"/>
  <unicode hex="0035"/>
  <outline>
    <contour>
      <point x="54" y="127" type="curve" smooth="yes"/>
      <point x="54" y="50"/>
      <point x="133" y="-15"/>
      <point x="230" y="-15" type="curve" smooth="yes"/>
      <point x="367" y="-15"/>
      <point x="472" y="75"/>
      <point x="472" y="211" type="curve" smooth="yes"/>
      <point x="472" y="328"/>
      <point x="390" y="407"/>
      <point x="267" y="407" type="curve" smooth="yes"/>
      <point x="203" y="407"/>
      <point x="150" y="379"/>
      <point x="111" y="319" type="curve"/>
      <point x="140" y="309" type="line"/>
      <point x="140" y="575" type="line"/>
      <point x="111" y="555" type="line"/>
      <point x="130" y="545"/>
      <point x="185" y="533"/>
      <point x="255" y="533" type="curve" smooth="yes"/>
      <point x="389" y="533"/>
      <point x="465" y="589"/>
      <point x="465" y="634" type="curve" smooth="yes"/>
      <point x="465" y="646"/>
      <point x="457" y="651"/>
      <point x="446" y="651" type="curve" smooth="yes"/>
      <point x="430" y="651"/>
      <point x="395" y="631"/>
      <point x="339" y="631" type="curve" smooth="yes"/>
      <point x="274" y="631"/>
      <point x="178" y="650"/>
      <point x="132" y="650" type="curve" smooth="yes"/>
      <point x="97" y="650"/>
      <point x="82" y="630"/>
      <point x="82" y="598" type="curve" smooth="yes"/>
      <point x="82" y="301" type="line" smooth="yes"/>
      <point x="82" y="285"/>
      <point x="95" y="272"/>
      <point x="109" y="272" type="curve" smooth="yes"/>
      <point x="122" y="272"/>
      <point x="136" y="280"/>
      <point x="148" y="297" type="curve" smooth="yes"/>
      <point x="176" y="334"/>
      <point x="207" y="349"/>
      <point x="243" y="349" type="curve" smooth="yes"/>
      <point x="323" y="349"/>
      <point x="369" y="289"/>
      <point x="369" y="182" type="curve" smooth="yes"/>
      <point x="369" y="89"/>
      <point x="321" y="36"/>
      <point x="254" y="36" type="curve" smooth="yes"/>
      <point x="202" y="36"/>
      <point x="171" y="64"/>
      <point x="171" y="94" type="curve" smooth="yes"/>
      <point x="171" y="126" type="line" smooth="yes"/>
      <point x="171" y="164"/>
      <point x="145" y="189"/>
      <point x="112" y="189" type="curve" smooth="yes"/>
      <point x="81" y="189"/>
      <point x="54" y="162"/>
    </contour>
  </outline>
</glyph>
<glyph name="less" format="1">
  <advance width="518"/>
  <unicode hex="003C"/>
  <outline>
    <contour>
      <point x="468" y="123" type="curve" smooth="yes"/>
      <point x="468" y="144"/>
      <point x="452" y="163"/>
      <point x="418" y="180" type="curve" smooth="yes"/>
      <point x="336" y="222"/>
      <point x="215" y="274"/>
      <point x="83" y="311" type="curve"/>
      <point x="83" y="295" type="line"/>
      <point x="215" y="332"/>
      <point x="336" y="382"/>
      <point x="421" y="427" type="curve" smooth="yes"/>
      <point x="453" y="444"/>
      <point x="468" y="462"/>
      <point x="468" y="481" type="curve" smooth="yes"/>
      <point x="468" y="498"/>
      <point x="457" y="511"/>
      <point x="439" y="511" type="curve" smooth="yes"/>
      <point x="425" y="511"/>
      <point x="408" y="504"/>
      <point x="390" y="492" type="curve" smooth="yes"/>
      <point x="329" y="450"/>
      <point x="187" y="378"/>
      <point x="65" y="333" type="curve" smooth="yes"/>
      <point x="46" y="326"/>
      <point x="40" y="314"/>
      <point x="40" y="303" type="curve" smooth="yes"/>
      <point x="40" y="292"/>
      <point x="46" y="280"/>
      <point x="65" y="273" type="curve" smooth="yes"/>
      <point x="187" y="228"/>
      <point x="331" y="157"/>
      <point x="390" y="114" type="curve" smooth="yes"/>
      <point x="409" y="101"/>
      <point x="425" y="95"/>
      <point x="436" y="95" type="curve" smooth="yes"/>
      <point x="456" y="95"/>
      <point x="468" y="107"/>
    </contour>
  </outline>
</glyph>
<glyph name="at" format="1">
  <advance width="778"/>
  <unicode hex="0040"/>
  <outline>
    <contour>
      <point x="485" y="239" type="curve"/>
      <point x="480" y="268" type="line"/>
      <point x="456" y="277"/>
      <point x="431" y="284"/>
      <point x="394" y="284" type="curve" smooth="yes"/>
      <point x="293" y="284"/>
      <point x="242" y="240"/>
      <point x="242" y="183" type="curve" smooth="yes"/>
      <point x="242" y="125"/>
      <point x="287" y="89"/>
      <point x="355" y="89" type="curve" smooth="yes"/>
      <point x="409" y="89"/>
      <point x="460" y="115"/>
      <point x="493" y="159" type="curve"/>
      <point x="471" y="187" type="line"/>
      <point x="453" y="153"/>
      <point x="420" y="139"/>
      <point x="386" y="139" type="curve" smooth="yes"/>
      <point x="350" y="139"/>
      <point x="325" y="158"/>
      <point x="325" y="192" type="curve" smooth="yes"/>
      <point x="325" y="223"/>
      <point x="347" y="249"/>
      <point x="393" y="249" type="curve" smooth="yes"/>
      <point x="430" y="249"/>
      <point x="458" y="245"/>
    </contour>
    <contour>
      <point x="268" y="365" type="curve" smooth="yes"/>
      <point x="268" y="340"/>
      <point x="284" y="323"/>
      <point x="306" y="323" type="curve" smooth="yes"/>
      <point x="335" y="323"/>
      <point x="354" y="344"/>
      <point x="354" y="373" type="curve" smooth="yes"/>
      <point x="354" y="391" type="line" smooth="yes"/>
      <point x="354" y="416"/>
      <point x="372" y="427"/>
      <point x="399" y="427" type="curve" smooth="yes"/>
      <point x="435" y="427"/>
      <point x="460" y="401"/>
      <point x="460" y="332" type="curve" smooth="yes"/>
      <point x="460" y="196" type="line" smooth="yes"/>
      <point x="460" y="119"/>
      <point x="511" y="89"/>
      <point x="567" y="89" type="curve" smooth="yes"/>
      <point x="657" y="89"/>
      <point x="727" y="167"/>
      <point x="727" y="301" type="curve" smooth="yes"/>
      <point x="727" y="487"/>
      <point x="597" y="614"/>
      <point x="418" y="614" type="curve" smooth="yes"/>
      <point x="204" y="614"/>
      <point x="47" y="468"/>
      <point x="47" y="267" type="curve" smooth="yes"/>
      <point x="47" y="56"/>
      <point x="190" y="-83"/>
      <point x="405" y="-83" type="curve" smooth="yes"/>
      <point x="529" y="-83"/>
      <point x="635" y="-33"/>
      <point x="699" y="35" type="curve" smooth="yes"/>
      <point x="708" y="45"/>
      <point x="712" y="54"/>
      <point x="712" y="62" type="curve" smooth="yes"/>
      <point x="712" y="70"/>
      <point x="707" y="76"/>
      <point x="698" y="76" type="curve" smooth="yes"/>
      <point x="691" y="76"/>
      <point x="684" y="73"/>
      <point x="675" y="64" type="curve" smooth="yes"/>
      <point x="628" y="18"/>
      <point x="530" y="-31"/>
      <point x="406" y="-31" type="curve" smooth="yes"/>
      <point x="228" y="-31"/>
      <point x="101" y="93"/>
      <point x="101" y="267" type="curve" smooth="yes"/>
      <point x="101" y="440"/>
      <point x="234" y="567"/>
      <point x="412" y="567" type="curve" smooth="yes"/>
      <point x="563" y="567"/>
      <point x="675" y="458"/>
      <point x="675" y="300" type="curve" smooth="yes"/>
      <point x="675" y="194"/>
      <point x="639" y="139"/>
      <point x="587" y="139" type="curve" smooth="yes"/>
      <point x="548" y="139"/>
      <point x="528" y="163"/>
      <point x="528" y="204" type="curve" smooth="yes"/>
      <point x="528" y="349" type="line" smooth="yes"/>
      <point x="528" y="424"/>
      <point x="480" y="459"/>
      <point x="413" y="459" type="curve" smooth="yes"/>
      <point x="327" y="459"/>
      <point x="268" y="406"/>
    </contour>
  </outline>
</glyph>
<glyph name="A" format="2">
  <advance width="630"/>
  <unicode hex="0041"/>
  <anchor x="342" y="731" name="center"/>
  <outline>
    <contour>
      <point x="154" y="266" type="line"/>
      <point x="157" y="243" type="line"/>
      <point x="460" y="243" type="line"/>
      <point x="454" y="266" type="line"/>
    </contour>
    <contour>
      <point x="192" y="10" type="curve" smooth="yes"/>
      <point x="192.0" y="13.6"/>
      <point x="189" y="17"/>
      <point x="179" y="19" type="curve" smooth="yes"/>
      <point x="143" y="27" type="line" smooth="yes"/>
      <point x="116" y="33"/>
      <point x="110" y="64"/>
      <point x="127" y="112" type="curve" smooth="yes"/>
      <point x="311" y="649" type="line"/>
      <point x="321" y="649" type="line"/>
      <point x="515" y="72" type="line" smooth="yes"/>
      <point x="521" y="55"/>
      <point x="513" y="35"/>
      <point x="489" y="30" type="curve" smooth="yes"/>
      <point x="449" y="21" type="line" smooth="yes"/>
      <point x="442" y="19"/>
      <point x="438" y="16"/>
      <point x="438" y="10" type="curve" smooth="yes"/>
      <point x="438.0" y="4.0"/>
      <point x="443" y="0"/>
      <point x="452" y="0" type="curve" smooth="yes"/>
      <point x="627" y="0" type="line" smooth="yes"/>
      <point x="634.0" y="0.0"/>
      <point x="640.0" y="3.0"/>
      <point x="640" y="9" type="curve" smooth="yes"/>
      <point x="640.0" y="13"/>
      <point x="635" y="17"/>
      <point x="624" y="20" type="curve" smooth="yes"/>
      <point x="596" y="28"/>
      <point x="579" y="43"/>
      <point x="570" y="70" type="curve" smooth="yes"/>
      <point x="373" y="641" type="line" smooth="yes"/>
      <point x="365" y="663"/>
      <point x="371.0" y="674.0"/>
      <point x="382" y="676" type="curve" smooth="yes"/>
      <point x="391" y="678"/>
      <point x="399.0" y="681"/>
      <point x="399" y="687" type="curve" smooth="yes"/>
      <point x="399.0" y="695.0"/>
      <point x="392.0" y="700.0"/>
      <point x="384" y="700" type="curve" smooth="yes"/>
      <point x="259" y="700" type="line" smooth="yes"/>
      <point x="250" y="700"/>
      <point x="243.0" y="696"/>
      <point x="243" y="690" type="curve" smooth="yes"/>
      <point x="243.0" y="683"/>
      <point x="249" y="678"/>
      <point x="261" y="676" type="curve" smooth="yes"/>
      <point x="278" y="673"/>
      <point x="284" y="662"/>
      <point x="280" y="650" type="curve" smooth="yes"/>
      <point x="94" y="112" type="line" smooth="yes"/>
      <point x="71" y="46"/>
      <point x="45" y="28"/>
      <point x="15" y="19" type="curve" smooth="yes"/>
      <point x="3" y="15"/>
      <point x="0.0" y="12"/>
      <point x="0" y="7" type="curve" smooth="yes"/>
      <point x="0.0" y="2.0"/>
      <point x="4" y="0"/>
      <point x="12" y="0" type="curve" smooth="yes"/>
      <point x="178" y="0" type="line" smooth="yes"/>
      <point x="186.75" y="0"/>
      <point x="192.0" y="4.0"/>
    </contour>
  </outline>
</glyph>
<glyph name="E" format="2">
  <advance width="587"/>
  <unicode hex="0045"/>
  <outline>
    <contour>
      <point x="168" y="346" type="line"/>
      <point x="170" y="325" type="line"/>
      <point x="380" y="325" type="line" smooth="yes"/>
      <point x="415.0" y="325"/>
      <point x="432.0" y="317.0"/>
      <point x="450" y="276" type="curve" smooth="yes"/>
      <point x="454" y="267"/>
      <point x="460" y="263"/>
      <point x="466" y="263" type="curve" smooth="yes"/>
      <point x="470" y="263"/>
      <point x="474" y="265"/>
      <point x="474" y="269" type="curve" smooth="yes"/>
      <point x="474" y="273"/>
      <point x="474" y="276"/>
      <point x="473" y="278" type="curve" smooth="yes"/>
      <point x="439" y="400" type="line" smooth="yes"/>
      <point x="438" y="405"/>
      <point x="434" y="408"/>
      <point x="430" y="408" type="curve" smooth="yes"/>
      <point x="425" y="408"/>
      <point x="423" y="405"/>
      <point x="422" y="392" type="curve" smooth="yes"/>
      <point x="420" y="359"/>
      <point x="404" y="346"/>
      <point x="378" y="346" type="curve" smooth="yes"/>
    </contour>
    <contour>
      <point x="50" y="691" type="curve" smooth="yes"/>
      <point x="50" y="685"/>
      <point x="55" y="682"/>
      <point x="61" y="681" type="curve" smooth="yes"/>
      <point x="116" y="672" type="line" smooth="yes"/>
      <point x="131" y="670"/>
      <point x="140" y="657"/>
      <point x="140" y="641" type="curve" smooth="yes"/>
      <point x="140" y="66" type="line" smooth="yes"/>
      <point x="140" y="44"/>
      <point x="132" y="33"/>
      <point x="114" y="29" type="curve" smooth="yes"/>
      <point x="71" y="20" type="line" smooth="yes"/>
      <point x="57" y="17"/>
      <point x="50" y="15"/>
      <point x="50" y="8" type="curve" smooth="yes"/>
      <point x="50" y="2"/>
      <point x="59" y="0"/>
      <point x="74" y="0" type="curve" smooth="yes"/>
      <point x="449" y="0" type="line" smooth="yes"/>
      <point x="478" y="0"/>
      <point x="491" y="-13"/>
      <point x="503" y="-13" type="curve" smooth="yes"/>
      <point x="508" y="-13"/>
      <point x="511" y="-9"/>
      <point x="513" y="-2" type="curve" smooth="yes"/>
      <point x="546" y="134" type="line" smooth="yes"/>
      <point x="547" y="139"/>
      <point x="547" y="143"/>
      <point x="547" y="146" type="curve" smooth="yes"/>
      <point x="547" y="150"/>
      <point x="545" y="153"/>
      <point x="541" y="153" type="curve" smooth="yes"/>
      <point x="537" y="153"/>
      <point x="533" y="150"/>
      <point x="530" y="142" type="curve" smooth="yes"/>
      <point x="497" y="46"/>
      <point x="449" y="23"/>
      <point x="374" y="23" type="curve" smooth="yes"/>
      <point x="234" y="23" type="line" smooth="yes"/>
      <point x="205" y="23"/>
      <point x="189" y="39"/>
      <point x="189" y="65" type="curve" smooth="yes"/>
      <point x="189" y="680" type="line"/>
      <point x="387" y="680" type="line" smooth="yes"/>
      <point x="452" y="680"/>
      <point x="483" y="658"/>
      <point x="519" y="585" type="curve" smooth="yes"/>
      <point x="522" y="578"/>
      <point x="526" y="575"/>
      <point x="532" y="575" type="curve" smooth="yes"/>
      <point x="536" y="575"/>
      <point x="539" y="578"/>
      <point x="539" y="582" type="curve" smooth="yes"/>
      <point x="539" y="584"/>
      <point x="538" y="588"/>
      <point x="536" y="594" type="curve" smooth="yes"/>
      <point x="499" y="714" type="line" smooth="yes"/>
      <point x="497" y="720"/>
      <point x="494" y="723"/>
      <point x="490" y="723" type="curve" smooth="yes"/>
      <point x="487" y="723"/>
      <point x="484" y="721"/>
      <point x="481" y="717" type="curve" smooth="yes"/>
      <point x="472" y="705"/>
      <point x="461" y="700"/>
      <point x="447" y="700" type="curve" smooth="yes"/>
      <point x="59" y="700" type="line" smooth="yes"/>
      <point x="53" y="700"/>
      <point x="50" y="697"/>
    </contour>
  </outline>
</glyph>
<glyph name="G" format="1">
  <advance width="744"/>
  <unicode hex="0047"/>
  <outline>
    <contour>
      <point x="647" y="25" type="curve" smooth="yes"/>
      <point x="647" y="201" type="line" smooth="yes"/>
      <point x="647" y="224"/>
      <point x="656" y="240"/>
      <point x="672" y="245" type="curve" smooth="yes"/>
      <point x="688" y="251" type="line" smooth="yes"/>
      <point x="710" y="258"/>
      <point x="716" y="263"/>
      <point x="716" y="274" type="curve" smooth="yes"/>
      <point x="716" y="286"/>
      <point x="704" y="293"/>
      <point x="685" y="293" type="curve" smooth="yes"/>
      <point x="463" y="293" type="line" smooth="yes"/>
      <point x="443" y="293"/>
      <point x="432" y="286"/>
      <point x="432" y="274" type="curve" smooth="yes"/>
      <point x="432" y="261"/>
      <point x="442" y="253"/>
      <point x="460" y="251" type="curve" smooth="yes"/>
      <point x="494" y="245" type="line" smooth="yes"/>
      <point x="522" y="240"/>
      <point x="540" y="229"/>
      <point x="540" y="211" type="curve" smooth="yes"/>
      <point x="540" y="106" type="line" smooth="yes"/>
      <point x="540" y="66"/>
      <point x="501" y="45"/>
      <point x="406" y="45" type="curve" smooth="yes"/>
      <point x="253" y="45"/>
      <point x="150" y="170"/>
      <point x="150" y="365" type="curve" smooth="yes"/>
      <point x="150" y="541"/>
      <point x="241" y="659"/>
      <point x="391" y="659" type="curve" smooth="yes"/>
      <point x="461" y="659"/>
      <point x="523" y="632"/>
      <point x="606" y="535" type="curve" smooth="yes"/>
      <point x="623" y="515"/>
      <point x="633" y="510"/>
      <point x="645" y="510" type="curve" smooth="yes"/>
      <point x="657" y="510"/>
      <point x="665" y="517"/>
      <point x="665" y="528" type="curve" smooth="yes"/>
      <point x="665" y="539"/>
      <point x="663" y="549"/>
      <point x="658" y="564" type="curve" smooth="yes"/>
      <point x="616" y="685" type="line" smooth="yes"/>
      <point x="609" y="706"/>
      <point x="603" y="713"/>
      <point x="592" y="713" type="curve" smooth="yes"/>
      <point x="575" y="713"/>
      <point x="564" y="684"/>
      <point x="544" y="684" type="curve" smooth="yes"/>
      <point x="524" y="684"/>
      <point x="486" y="713"/>
      <point x="404" y="713" type="curve" smooth="yes"/>
      <point x="181" y="713"/>
      <point x="37" y="551"/>
      <point x="37" y="330" type="curve" smooth="yes"/>
      <point x="37" y="122"/>
      <point x="178" y="-15"/>
      <point x="378" y="-15" type="curve" smooth="yes"/>
      <point x="468" y="-15"/>
      <point x="512" y="23"/>
      <point x="546" y="23" type="curve" smooth="yes"/>
      <point x="569" y="23"/>
      <point x="586" y="-15"/>
      <point x="612" y="-15" type="curve" smooth="yes"/>
      <point x="638" y="-15"/>
      <point x="647" y="1"/>
    </contour>
  </outline>
</glyph>
<glyph name="I" format="1">
  <advance width="356"/>
  <unicode hex="0049"/>
  <outline>
    <contour>
      <point x="206" y="85" type="curve" smooth="yes"/>
      <point x="206" y="625" type="line" smooth="yes"/>
      <point x="206" y="648"/>
      <point x="216" y="658"/>
      <point x="236" y="664" type="curve" smooth="yes"/>
      <point x="278" y="676" type="line" smooth="yes"/>
      <point x="287" y="677"/>
      <point x="293" y="682"/>
      <point x="293" y="690" type="curve" smooth="yes"/>
      <point x="293" y="697"/>
      <point x="288" y="700"/>
      <point x="277" y="700" type="curve" smooth="yes"/>
      <point x="81" y="700" type="line" smooth="yes"/>
      <point x="69" y="700"/>
      <point x="64" y="696"/>
      <point x="64" y="689" type="curve" smooth="yes"/>
      <point x="64" y="681"/>
      <point x="70" y="677"/>
      <point x="81" y="675" type="curve" smooth="yes"/>
      <point x="120" y="664" type="line" smooth="yes"/>
      <point x="139" y="659"/>
      <point x="149" y="648"/>
      <point x="149" y="625" type="curve" smooth="yes"/>
      <point x="149" y="85" type="line" smooth="yes"/>
      <point x="149" y="55"/>
      <point x="133" y="42"/>
      <point x="107" y="35" type="curve" smooth="yes"/>
      <point x="80" y="25" type="line" smooth="yes"/>
      <point x="69" y="22"/>
      <point x="63" y="21"/>
      <point x="63" y="10" type="curve" smooth="yes"/>
      <point x="63" y="3"/>
      <point x="70" y="0"/>
      <point x="84" y="0" type="curve" smooth="yes"/>
      <point x="272" y="0" type="line" smooth="yes"/>
      <point x="286" y="0"/>
      <point x="292" y="3"/>
      <point x="292" y="10" type="curve" smooth="yes"/>
      <point x="292" y="20"/>
      <point x="286" y="22"/>
      <point x="276" y="25" type="curve" smooth="yes"/>
      <point x="248" y="35" type="line" smooth="yes"/>
      <point x="220" y="42"/>
      <point x="206" y="55"/>
    </contour>
  </outline>
</glyph>
<glyph name="N" format="2">
  <advance width="756"/>
  <unicode hex="004E"/>
  <outline>
    <contour>
      <point x="264" y="11" type="curve" smooth="yes"/>
      <point x="264" y="17"/>
      <point x="259" y="18"/>
      <point x="247" y="22" type="curve" smooth="yes"/>
      <point x="206" y="35" type="line" smooth="yes"/>
      <point x="179" y="44"/>
      <point x="166" y="58"/>
      <point x="166" y="78" type="curve" smooth="yes"/>
      <point x="166" y="595" type="line"/>
      <point x="159" y="577" type="line"/>
      <point x="597" y="37" type="line" smooth="yes"/>
      <point x="602" y="30"/>
      <point x="604" y="24"/>
      <point x="604" y="15" type="curve" smooth="yes"/>
      <point x="604" y="7"/>
      <point x="608" y="0"/>
      <point x="617" y="0" type="curve" smooth="yes"/>
      <point x="669" y="0" type="line" smooth="yes"/>
      <point x="677.0" y="0.0"/>
      <point x="682" y="4"/>
      <point x="682" y="12" type="curve" smooth="yes"/>
      <point x="682" y="17"/>
      <point x="680" y="22"/>
      <point x="675" y="27" type="curve" smooth="yes"/>
      <point x="649" y="57" type="line" smooth="yes"/>
      <point x="641" y="67"/>
      <point x="636.0" y="77.0"/>
      <point x="636" y="92" type="curve" smooth="yes"/>
      <point x="636" y="614" type="line" smooth="yes"/>
      <point x="636" y="635"/>
      <point x="648" y="650"/>
      <point x="666" y="657" type="curve" smooth="yes"/>
      <point x="716" y="678" type="line" smooth="yes"/>
      <point x="725" y="682"/>
      <point x="729" y="685"/>
      <point x="729" y="690" type="curve" smooth="yes"/>
      <point x="729" y="696"/>
      <point x="722" y="700"/>
      <point x="713" y="700" type="curve" smooth="yes"/>
      <point x="516" y="700" type="line" smooth="yes"/>
      <point x="507" y="700"/>
      <point x="502" y="697"/>
      <point x="502" y="690" type="curve" smooth="yes"/>
      <point x="502" y="685"/>
      <point x="507" y="681"/>
      <point x="516" y="678" type="curve" smooth="yes"/>
      <point x="566" y="661" type="line" smooth="yes"/>
      <point x="597" y="650"/>
      <point x="605" y="637"/>
      <point x="605" y="616" type="curve" smooth="yes"/>
      <point x="605" y="90" type="line"/>
      <point x="620" y="85" type="line"/>
      <point x="135" y="683" type="line" smooth="yes"/>
      <point x="125" y="695"/>
      <point x="116" y="700"/>
      <point x="104" y="700" type="curve" smooth="yes"/>
      <point x="74" y="700" type="line" smooth="yes"/>
      <point x="64.0" y="700.0"/>
      <point x="57" y="697"/>
      <point x="57" y="690" type="curve" smooth="yes"/>
      <point x="57" y="684"/>
      <point x="59" y="681"/>
      <point x="67" y="672" type="curve" smooth="yes"/>
      <point x="124" y="607" type="line" smooth="yes"/>
      <point x="132" y="598"/>
      <point x="134" y="590"/>
      <point x="134" y="576" type="curve" smooth="yes"/>
      <point x="134" y="78" type="line" smooth="yes"/>
      <point x="134" y="60"/>
      <point x="119" y="45"/>
      <point x="96" y="37" type="curve" smooth="yes"/>
      <point x="50" y="22" type="line" smooth="yes"/>
      <point x="40" y="19"/>
      <point x="35" y="15"/>
      <point x="35" y="8" type="curve" smooth="yes"/>
      <point x="35" y="2"/>
      <point x="42" y="0"/>
      <point x="51" y="0" type="curve" smooth="yes"/>
      <point x="246" y="0" type="line" smooth="yes"/>
      <point x="257" y="0"/>
      <point x="264" y="4"/>
    </contour>
  </outline>
</glyph>
<glyph name="O" format="2">
  <advance width="792"/>
  <unicode hex="004F"/>
  <outline>
    <contour>
      <point x="406" y="713" type="curve" smooth="yes"/>
      <point x="195" y="713"/>
      <point x="50" y="558"/>
      <point x="50" y="347" type="curve" smooth="yes"/>
      <point x="50" y="143"/>
      <point x="186" y="-15"/>
      <point x="386" y="-15" type="curve" smooth="yes"/>
      <point x="600" y="-15"/>
      <point x="742" y="147"/>
      <point x="742" y="361" type="curve" smooth="yes"/>
      <point x="742" y="563"/>
      <point x="604" y="713"/>
    </contour>
    <contour>
      <point x="683" y="328" type="curve" smooth="yes"/>
      <point x="683" y="160"/>
      <point x="588" y="15"/>
      <point x="414" y="15" type="curve" smooth="yes"/>
      <point x="214" y="15"/>
      <point x="107" y="181"/>
      <point x="107" y="376" type="curve" smooth="yes"/>
      <point x="107" y="544"/>
      <point x="209" y="684"/>
      <point x="382" y="684" type="curve" smooth="yes"/>
      <point x="576" y="684"/>
      <point x="683" y="520"/>
    </contour>
  </outline>
</glyph>
<glyph name="Q" format="1">
  <advance width="788"/>
  <unicode hex="0051"/>
  <outline>
    <contour>
      <point x="408" y="167" type="curve" smooth="yes"/>
      <point x="468" y="-49"/>
      <point x="578" y="-155"/>
      <point x="709" y="-155" type="curve" smooth="yes"/>
      <point x="732" y="-155"/>
      <point x="739" y="-143"/>
      <point x="745" y="-124" type="curve" smooth="yes"/>
      <point x="762" y="-71" type="line" smooth="yes"/>
      <point x="765" y="-61"/>
      <point x="767" y="-55"/>
      <point x="767" y="-49" type="curve" smooth="yes"/>
      <point x="767" y="-40"/>
      <point x="760" y="-34"/>
      <point x="752" y="-34" type="curve" smooth="yes"/>
      <point x="734" y="-34"/>
      <point x="719" y="-50"/>
      <point x="673" y="-50" type="curve" smooth="yes"/>
      <point x="582" y="-50"/>
      <point x="509" y="9"/>
      <point x="452" y="180" type="curve" smooth="yes"/>
      <point x="446" y="198"/>
      <point x="437" y="208"/>
      <point x="424" y="208" type="curve" smooth="yes"/>
      <point x="414" y="208"/>
      <point x="405" y="199"/>
      <point x="405" y="186" type="curve" smooth="yes"/>
      <point x="405" y="179"/>
      <point x="406" y="174"/>
    </contour>
    <component base="O"/>
  </outline>
</glyph>
<glyph name="S" format="2">
  <advance width="559"/>
  <unicode hex="0053"/>
  <outline>
    <contour>
      <point x="309" y="-15" type="curve" smooth="yes"/>
      <point x="414" y="-15"/>
      <point x="491" y="57"/>
      <point x="491" y="162" type="curve" smooth="yes"/>
      <point x="491.0" y="263.01010101010104"/>
      <point x="431.77581272213" y="316.75755852433434"/>
      <point x="287" y="362" type="curve" smooth="yes"/>
      <point x="155.78060868627873" y="402.7575382110801"/>
      <point x="105.0" y="451.04761904761904"/>
      <point x="105" y="549" type="curve" smooth="yes"/>
      <point x="105.0" y="636.4817518248175"/>
      <point x="174.0" y="690.0"/>
      <point x="258" y="690" type="curve" smooth="yes"/>
      <point x="356.0" y="690.0"/>
      <point x="416.9637607432353" y="626.8965133567202"/>
      <point x="471" y="528" type="curve" smooth="yes"/>
      <point x="475" y="521"/>
      <point x="480" y="515"/>
      <point x="488" y="515" type="curve" smooth="yes"/>
      <point x="494" y="515"/>
      <point x="498" y="518"/>
      <point x="498" y="524" type="curve" smooth="yes"/>
      <point x="498" y="530"/>
      <point x="497" y="536"/>
      <point x="495" y="541" type="curve" smooth="yes"/>
      <point x="442" y="695" type="line" smooth="yes"/>
      <point x="440" y="700"/>
      <point x="437" y="705"/>
      <point x="431" y="705" type="curve" smooth="yes"/>
      <point x="411" y="705"/>
      <point x="420" y="680"/>
      <point x="400" y="680" type="curve" smooth="yes"/>
      <point x="375.0" y="680.0"/>
      <point x="345.0" y="713.0"/>
      <point x="260" y="713" type="curve" smooth="yes"/>
      <point x="150" y="713"/>
      <point x="63" y="638"/>
      <point x="63" y="528" type="curve" smooth="yes"/>
      <point x="63.0" y="419.042654028436"/>
      <point x="132.72038520802812" y="361.7755321453246"/>
      <point x="270" y="319" type="curve" smooth="yes"/>
      <point x="401.80268154914063" y="278.75490639720897"/>
      <point x="448" y="226"/>
      <point x="448" y="139" type="curve" smooth="yes"/>
      <point x="448.0" y="57.471999999999994"/>
      <point x="393.0" y="10.0"/>
      <point x="313" y="10" type="curve" smooth="yes"/>
      <point x="215.0" y="10.0"/>
      <point x="147.94369369612932" y="85.41459459050276"/>
      <point x="97" y="171" type="curve" smooth="yes"/>
      <point x="94" y="176"/>
      <point x="91" y="181"/>
      <point x="85" y="181" type="curve" smooth="yes"/>
      <point x="80" y="181"/>
      <point x="77" y="176"/>
      <point x="78" y="171" type="curve" smooth="yes"/>
      <point x="106" y="-1" type="line" smooth="yes"/>
      <point x="107" y="-5"/>
      <point x="109" y="-8"/>
      <point x="114" y="-8" type="curve" smooth="yes"/>
      <point x="130" y="-8"/>
      <point x="128" y="39"/>
      <point x="146" y="39" type="curve" smooth="yes"/>
      <point x="171" y="39"/>
      <point x="210" y="-15"/>
    </contour>
  </outline>
</glyph>
<glyph name="U" format="1">
  <advance width="700"/>
  <unicode hex="0055"/>
  <outline>
    <contour>
      <point x="551" y="292" type="line" smooth="yes"/>
      <point x="552" y="267"/>
      <point x="555" y="243"/>
      <point x="555" y="199" type="curve" smooth="yes"/>
      <point x="555" y="103"/>
      <point x="493" y="45"/>
      <point x="384" y="45" type="curve" smooth="yes"/>
      <point x="260" y="45"/>
      <point x="187" y="105"/>
      <point x="187" y="226" type="curve" smooth="yes"/>
      <point x="187" y="250"/>
      <point x="189" y="284"/>
      <point x="191" y="324" type="curve" smooth="yes"/>
      <point x="207" y="607" type="line" smooth="yes"/>
      <point x="209" y="634"/>
      <point x="219" y="647"/>
      <point x="244" y="652" type="curve" smooth="yes"/>
      <point x="274" y="658" type="line" smooth="yes"/>
      <point x="292" y="662"/>
      <point x="302" y="667"/>
      <point x="302" y="681" type="curve" smooth="yes"/>
      <point x="302" y="694"/>
      <point x="293" y="700"/>
      <point x="272" y="700" type="curve" smooth="yes"/>
      <point x="49" y="700" type="line" smooth="yes"/>
      <point x="28" y="700"/>
      <point x="19" y="694"/>
      <point x="19" y="681" type="curve" smooth="yes"/>
      <point x="19" y="667"/>
      <point x="29" y="664"/>
      <point x="47" y="658" type="curve" smooth="yes"/>
      <point x="66" y="652" type="line" smooth="yes"/>
      <point x="90" y="644"/>
      <point x="105" y="634"/>
      <point x="103" y="607" type="curve" smooth="yes"/>
      <point x="87" y="324" type="line" smooth="yes"/>
      <point x="85" y="286"/>
      <point x="78" y="214"/>
      <point x="78" y="180" type="curve" smooth="yes"/>
      <point x="78" y="72"/>
      <point x="172" y="-15"/>
      <point x="353" y="-15" type="curve" smooth="yes"/>
      <point x="539" y="-15"/>
      <point x="624" y="77"/>
      <point x="624" y="195" type="curve" smooth="yes"/>
      <point x="624" y="229"/>
      <point x="621" y="260"/>
      <point x="619" y="293" type="curve" smooth="yes"/>
      <point x="600" y="600" type="line" smooth="yes"/>
      <point x="599" y="619"/>
      <point x="608" y="639"/>
      <point x="625" y="645" type="curve" smooth="yes"/>
      <point x="662" y="657" type="line" smooth="yes"/>
      <point x="680" y="663"/>
      <point x="686" y="669"/>
      <point x="686" y="682" type="curve" smooth="yes"/>
      <point x="686" y="692"/>
      <point x="676" y="700"/>
      <point x="663" y="700" type="curve" smooth="yes"/>
      <point x="460" y="700" type="line" smooth="yes"/>
      <point x="442" y="700"/>
      <point x="431" y="695"/>
      <point x="431" y="681" type="curve" smooth="yes"/>
      <point x="431" y="671"/>
      <point x="442" y="662"/>
      <point x="462" y="656" type="curve" smooth="yes"/>
      <point x="498" y="645" type="line" smooth="yes"/>
      <point x="525" y="637"/>
      <point x="532" y="621"/>
      <point x="533" y="600" type="curve" smooth="yes"/>
    </contour>
    <contour>
      <point x="365" y="730" type="move" name="center"/>
    </contour>
  </outline>
</glyph>
<glyph name="W" format="1">
  <advance width="1016"/>
  <unicode hex="0057"/>
  <outline>
    <contour>
      <point x="491" y="539" type="line"/>
      <point x="309" y="86" type="line"/>
      <point x="352" y="95" type="line"/>
      <point x="187" y="587" type="line" smooth="yes"/>
      <point x="176" y="621"/>
      <point x="189" y="644"/>
      <point x="214" y="649" type="curve" smooth="yes"/>
      <point x="234" y="654" type="line" smooth="yes"/>
      <point x="248" y="657"/>
      <point x="257" y="664"/>
      <point x="257" y="678" type="curve" smooth="yes"/>
      <point x="257" y="692"/>
      <point x="247" y="700"/>
      <point x="233" y="700" type="curve" smooth="yes"/>
      <point x="29" y="700" type="line" smooth="yes"/>
      <point x="11" y="700"/>
      <point x="0" y="693"/>
      <point x="0" y="680" type="curve" smooth="yes"/>
      <point x="0" y="664"/>
      <point x="5" y="654"/>
      <point x="33" y="643" type="curve" smooth="yes"/>
      <point x="53" y="634"/>
      <point x="67" y="623"/>
      <point x="78" y="591" type="curve" smooth="yes"/>
      <point x="239" y="134" type="line" smooth="yes"/>
      <point x="246" y="113"/>
      <point x="252" y="94"/>
      <point x="252" y="73" type="curve" smooth="yes"/>
      <point x="252" y="38" type="line" smooth="yes"/>
      <point x="252" y="15"/>
      <point x="268" y="0"/>
      <point x="287" y="0" type="curve" smooth="yes"/>
      <point x="339" y="0" type="line" smooth="yes"/>
      <point x="361" y="0"/>
      <point x="374" y="15"/>
      <point x="374" y="34" type="curve" smooth="yes"/>
      <point x="374" y="71" type="line" smooth="yes"/>
      <point x="374" y="95"/>
      <point x="378" y="119"/>
      <point x="388" y="143" type="curve" smooth="yes"/>
      <point x="528" y="483" type="line"/>
    </contour>
    <contour>
      <point x="787" y="675" type="curve" smooth="yes"/>
      <point x="787" y="661"/>
      <point x="797" y="651"/>
      <point x="813" y="644" type="curve" smooth="yes"/>
      <point x="862" y="622" type="line" smooth="yes"/>
      <point x="880" y="615"/>
      <point x="881" y="592"/>
      <point x="870" y="562" type="curve" smooth="yes"/>
      <point x="687" y="61" type="line"/>
      <point x="740" y="79" type="line"/>
      <point x="574" y="587" type="line" smooth="yes"/>
      <point x="563" y="619"/>
      <point x="575" y="646"/>
      <point x="590" y="649" type="curve" smooth="yes"/>
      <point x="610" y="654" type="line" smooth="yes"/>
      <point x="624" y="657"/>
      <point x="632" y="664"/>
      <point x="632" y="678" type="curve" smooth="yes"/>
      <point x="632" y="692"/>
      <point x="623" y="700"/>
      <point x="609" y="700" type="curve" smooth="yes"/>
      <point x="421" y="700" type="line" smooth="yes"/>
      <point x="403" y="700"/>
      <point x="392" y="693"/>
      <point x="392" y="680" type="curve" smooth="yes"/>
      <point x="392" y="668"/>
      <point x="399" y="662"/>
      <point x="416" y="651" type="curve" smooth="yes"/>
      <point x="430" y="642"/>
      <point x="453" y="629"/>
      <point x="466" y="591" type="curve" smooth="yes"/>
      <point x="623" y="127" type="line" smooth="yes"/>
      <point x="631" y="104"/>
      <point x="636" y="85"/>
      <point x="636" y="59" type="curve" smooth="yes"/>
      <point x="636" y="37" type="line" smooth="yes"/>
      <point x="636" y="17"/>
      <point x="651" y="0"/>
      <point x="670" y="0" type="curve" smooth="yes"/>
      <point x="724" y="0" type="line" smooth="yes"/>
      <point x="745" y="0"/>
      <point x="758" y="17"/>
      <point x="758" y="35" type="curve" smooth="yes"/>
      <point x="758" y="56" type="line" smooth="yes"/>
      <point x="758" y="79"/>
      <point x="761" y="101"/>
      <point x="770" y="126" type="curve" smooth="yes"/>
      <point x="934" y="566" type="line" smooth="yes"/>
      <point x="955" y="622"/>
      <point x="968" y="630"/>
      <point x="993" y="648" type="curve" smooth="yes"/>
      <point x="1010" y="660"/>
      <point x="1015" y="664"/>
      <point x="1015" y="680" type="curve" smooth="yes"/>
      <point x="1015" y="694"/>
      <point x="1008" y="700"/>
      <point x="992" y="700" type="curve" smooth="yes"/>
      <point x="823" y="700" type="line" smooth="yes"/>
      <point x="800" y="700"/>
      <point x="787" y="690"/>
    </contour>
  </outline>
</glyph>
<glyph name="X" format="1">
  <advance width="698"/>
  <unicode hex="0058"/>
  <outline>
    <contour>
      <point x="622" y="88" type="curve" smooth="yes"/>
      <point x="221" y="606" type="line" smooth="yes"/>
      <point x="199" y="635"/>
      <point x="222" y="644"/>
      <point x="243" y="649" type="curve" smooth="yes"/>
      <point x="264" y="654" type="line" smooth="yes"/>
      <point x="279" y="658"/>
      <point x="287" y="664"/>
      <point x="287" y="678" type="curve" smooth="yes"/>
      <point x="287" y="692"/>
      <point x="278" y="700"/>
      <point x="263" y="700" type="curve" smooth="yes"/>
      <point x="38" y="700" type="line" smooth="yes"/>
      <point x="20" y="700"/>
      <point x="7" y="693"/>
      <point x="7" y="680" type="curve" smooth="yes"/>
      <point x="7" y="668"/>
      <point x="16" y="661"/>
      <point x="42" y="651" type="curve" smooth="yes"/>
      <point x="68" y="642"/>
      <point x="71" y="635"/>
      <point x="92" y="609" type="curve" smooth="yes"/>
      <point x="504" y="84" type="line" smooth="yes"/>
      <point x="523" y="60"/>
      <point x="496" y="49"/>
      <point x="466" y="49" type="curve" smooth="yes"/>
      <point x="446" y="49"/>
      <point x="435" y="39"/>
      <point x="435" y="23" type="curve" smooth="yes"/>
      <point x="435" y="9"/>
      <point x="448" y="0"/>
      <point x="465" y="0" type="curve" smooth="yes"/>
      <point x="668" y="0" type="line" smooth="yes"/>
      <point x="686" y="0"/>
      <point x="699" y="9"/>
      <point x="699" y="23" type="curve" smooth="yes"/>
      <point x="699" y="39"/>
      <point x="688" y="47"/>
      <point x="668" y="49" type="curve" smooth="yes"/>
      <point x="648" y="50"/>
      <point x="640" y="65"/>
    </contour>
    <contour>
      <point x="364" y="311" type="line"/>
      <point x="552" y="566" type="line" smooth="yes"/>
      <point x="587" y="613"/>
      <point x="624" y="636"/>
      <point x="641" y="643" type="curve" smooth="yes"/>
      <point x="676" y="656"/>
      <point x="691" y="662"/>
      <point x="691" y="680" type="curve" smooth="yes"/>
      <point x="691" y="694"/>
      <point x="684" y="700"/>
      <point x="667" y="700" type="curve" smooth="yes"/>
      <point x="461" y="700" type="line" smooth="yes"/>
      <point x="442" y="700"/>
      <point x="432" y="692"/>
      <point x="432" y="678" type="curve" smooth="yes"/>
      <point x="432" y="663"/>
      <point x="444" y="655"/>
      <point x="468" y="649" type="curve" smooth="yes"/>
      <point x="493" y="644" type="line" smooth="yes"/>
      <point x="514" y="639"/>
      <point x="515" y="604"/>
      <point x="502" y="585" type="curve" smooth="yes"/>
      <point x="330" y="346" type="line"/>
    </contour>
    <contour>
      <point x="337" y="390" type="line"/>
      <point x="139" y="134" type="line" smooth="yes"/>
      <point x="112" y="100"/>
      <point x="79" y="70"/>
      <point x="52" y="61" type="curve" smooth="yes"/>
      <point x="15" y="49"/>
      <point x="0" y="35"/>
      <point x="0" y="21" type="curve" smooth="yes"/>
      <point x="0" y="7"/>
      <point x="7" y="1"/>
      <point x="24" y="1" type="curve" smooth="yes"/>
      <point x="230" y="1" type="line" smooth="yes"/>
      <point x="249" y="1"/>
      <point x="259" y="9"/>
      <point x="259" y="22" type="curve" smooth="yes"/>
      <point x="259" y="33"/>
      <point x="251" y="40"/>
      <point x="222" y="53" type="curve" smooth="yes"/>
      <point x="195" y="65" type="line" smooth="yes"/>
      <point x="175" y="74"/>
      <point x="172" y="93"/>
      <point x="189" y="116" type="curve" smooth="yes"/>
      <point x="370" y="355" type="line"/>
    </contour>
  </outline>
</glyph>
<glyph name="asciicircum" format="1">
  <advance width="430"/>
  <unicode hex="005E"/>
  <outline>
    <contour>
      <point x="67" y="495" type="curve" smooth="yes"/>
      <point x="144" y="652" type="line" smooth="yes"/>
      <point x="168" y="701"/>
      <point x="187" y="715"/>
      <point x="216" y="715" type="curve" smooth="yes"/>
      <point x="242" y="715"/>
      <point x="263" y="700"/>
      <point x="286" y="654" type="curve" smooth="yes"/>
      <point x="364" y="495" type="line" smooth="yes"/>
      <point x="368" y="486"/>
      <point x="374" y="474"/>
      <point x="374" y="462" type="curve" smooth="yes"/>
      <point x="374" y="449"/>
      <point x="367" y="442"/>
      <point x="352" y="442" type="curve" smooth="yes"/>
      <point x="344" y="442"/>
      <point x="332" y="446"/>
      <point x="319" y="464" type="curve" smooth="yes"/>
      <point x="188" y="644" type="line"/>
      <point x="243" y="644" type="line"/>
      <point x="112" y="464" type="line" smooth="yes"/>
      <point x="99" y="446"/>
      <point x="87" y="442"/>
      <point x="79" y="442" type="curve" smooth="yes"/>
      <point x="64" y="442"/>
      <point x="56" y="449"/>
      <point x="56" y="462" type="curve" smooth="yes"/>
      <point x="56" y="474"/>
      <point x="62" y="486"/>
    </contour>
  </outline>
</glyph>
<glyph name="a" format="1">
  <advance width="504"/>
  <unicode hex="0061"/>
  <outline>
    <contour>
      <point x="86" y="342" type="curve" smooth="yes"/>
      <point x="86" y="321"/>
      <point x="100" y="304"/>
      <point x="121" y="304" type="curve" smooth="yes"/>
      <point x="140" y="304"/>
      <point x="156" y="316"/>
      <point x="156" y="340" type="curve" smooth="yes"/>
      <point x="156" y="365" type="line" smooth="yes"/>
      <point x="156" y="421"/>
      <point x="189" y="456"/>
      <point x="254" y="456" type="curve" smooth="yes"/>
      <point x="327" y="456"/>
      <point x="367" y="415"/>
      <point x="367" y="335" type="curve" smooth="yes"/>
      <point x="367" y="50" type="line" smooth="yes"/>
      <point x="367" y="6"/>
      <point x="392" y="-17"/>
      <point x="422" y="-17" type="curve" smooth="yes"/>
      <point x="452" y="-17"/>
      <point x="480" y="1"/>
      <point x="480" y="22" type="curve" smooth="yes"/>
      <point x="480" y="29"/>
      <point x="477" y="31"/>
      <point x="474" y="31" type="curve" smooth="yes"/>
      <point x="466" y="31"/>
      <point x="459" y="18"/>
      <point x="443" y="18" type="curve" smooth="yes"/>
      <point x="429" y="18"/>
      <point x="416" y="33"/>
      <point x="416" y="57" type="curve" smooth="yes"/>
      <point x="416" y="351" type="line" smooth="yes"/>
      <point x="416" y="431"/>
      <point x="364" y="485"/>
      <point x="267" y="485" type="curve" smooth="yes"/>
      <point x="162" y="485"/>
      <point x="86" y="406"/>
    </contour>
    <contour>
      <point x="386" y="180" type="curve"/>
      <point x="388" y="206" type="line"/>
      <point x="347" y="221"/>
      <point x="298" y="234"/>
      <point x="250" y="234" type="curve" smooth="yes"/>
      <point x="127" y="234"/>
      <point x="62" y="167"/>
      <point x="62" y="101" type="curve" smooth="yes"/>
      <point x="62" y="32"/>
      <point x="126" y="-17"/>
      <point x="213" y="-17" type="curve" smooth="yes"/>
      <point x="285" y="-17"/>
      <point x="348" y="18"/>
      <point x="392" y="71" type="curve"/>
      <point x="381" y="89" type="line"/>
      <point x="342" y="45"/>
      <point x="287" y="23"/>
      <point x="232" y="23" type="curve" smooth="yes"/>
      <point x="170" y="23"/>
      <point x="124" y="62"/>
      <point x="124" y="111" type="curve" smooth="yes"/>
      <point x="124" y="159"/>
      <point x="161" y="206"/>
      <point x="253" y="206" type="curve" smooth="yes"/>
      <point x="304" y="206"/>
      <point x="347" y="193"/>
    </contour>
    <contour>
      <point x="274" y="525" type="move" name="center"/>
    </contour>
  </outline>
</glyph>
<glyph name="b" format="1">
  <advance width="560"/>
  <unicode hex="0062"/>
  <outline>
    <contour>
      <point x="4" y="654" type="curve" smooth="yes"/>
      <point x="33" y="654" type="line" smooth="yes"/>
      <point x="55" y="654"/>
      <point x="70" y="643"/>
      <point x="70" y="618" type="curve" smooth="yes"/>
      <point x="70" y="14" type="line" smooth="yes"/>
      <point x="70" y="-2"/>
      <point x="78" y="-10"/>
      <point x="90" y="-10" type="curve" smooth="yes"/>
      <point x="102" y="-10"/>
      <point x="110" y="-7"/>
      <point x="122" y="1" type="curve" smooth="yes"/>
      <point x="161" y="26" type="line" smooth="yes"/>
      <point x="161" y="725" type="line" smooth="yes"/>
      <point x="161" y="742"/>
      <point x="154" y="755"/>
      <point x="142" y="755" type="curve" smooth="yes"/>
      <point x="122" y="755"/>
      <point x="107" y="747"/>
      <point x="84" y="734" type="curve" smooth="yes"/>
      <point x="17" y="697" type="line" smooth="yes"/>
      <point x="-8" y="683"/>
      <point x="-12" y="674"/>
      <point x="-12" y="667" type="curve" smooth="yes"/>
      <point x="-12" y="659"/>
      <point x="-7" y="654"/>
    </contour>
    <contour>
      <point x="131" y="348" type="line"/>
      <point x="178" y="392"/>
      <point x="219" y="408"/>
      <point x="263" y="408" type="curve" smooth="yes"/>
      <point x="364" y="408"/>
      <point x="435" y="333"/>
      <point x="435" y="217" type="curve" smooth="yes"/>
      <point x="435" y="105"/>
      <point x="369" y="35"/>
      <point x="281" y="35" type="curve" smooth="yes"/>
      <point x="217" y="35"/>
      <point x="170" y="58"/>
      <point x="139" y="107" type="curve"/>
      <point x="104" y="77" type="line"/>
      <point x="149" y="14"/>
      <point x="204" y="-14"/>
      <point x="282" y="-14" type="curve" smooth="yes"/>
      <point x="418" y="-14"/>
      <point x="529" y="98"/>
      <point x="529" y="252" type="curve" smooth="yes"/>
      <point x="529" y="386"/>
      <point x="442" y="480"/>
      <point x="333" y="480" type="curve" smooth="yes"/>
      <point x="243" y="480"/>
      <point x="184" y="443"/>
      <point x="112" y="366" type="curve"/>
    </contour>
  </outline>
</glyph>
<glyph name="d" format="2">
  <advance width="538"/>
  <unicode hex="0064"/>
  <outline>
    <contour>
      <point x="461" y="696" type="line" smooth="yes"/>
      <point x="461" y="706"/>
      <point x="455" y="714"/>
      <point x="446" y="714" type="curve" smooth="yes"/>
      <point x="441" y="714"/>
      <point x="436" y="714"/>
      <point x="426" y="710" type="curve" smooth="yes"/>
      <point x="332" y="673" type="line" smooth="yes"/>
      <point x="327" y="671"/>
      <point x="323" y="667"/>
      <point x="323" y="664" type="curve" smooth="yes"/>
      <point x="323" y="660"/>
      <point x="327" y="657"/>
      <point x="332" y="657" type="curve" smooth="yes"/>
      <point x="389" y="657" type="line" smooth="yes"/>
      <point x="402" y="657"/>
      <point x="411" y="647"/>
      <point x="411" y="635" type="curve" smooth="yes"/>
      <point x="411" y="19" type="line" smooth="yes"/>
      <point x="411" y="8"/>
      <point x="417" y="0"/>
      <point x="427" y="0" type="curve" smooth="yes"/>
      <point x="514" y="0" type="line" smooth="yes"/>
      <point x="525" y="0"/>
      <point x="529" y="3"/>
      <point x="529" y="10" type="curve" smooth="yes"/>
      <point x="529" y="16"/>
      <point x="525" y="18"/>
      <point x="520" y="19" type="curve" smooth="yes"/>
      <point x="481" y="29" type="line" smooth="yes"/>
      <point x="468" y="32"/>
      <point x="461" y="39"/>
      <point x="461" y="56" type="curve" smooth="yes"/>
    </contour>
    <contour>
      <point x="434" y="110" type="line"/>
      <point x="383" y="53"/>
      <point x="328" y="24"/>
      <point x="264" y="24" type="curve" smooth="yes"/>
      <point x="148" y="24"/>
      <point x="93" y="125"/>
      <point x="93" y="239" type="curve" smooth="yes"/>
      <point x="93" y="355"/>
      <point x="166" y="451"/>
      <point x="287" y="451" type="curve" smooth="yes"/>
      <point x="346" y="451"/>
      <point x="398" y="426"/>
      <point x="429" y="378" type="curve"/>
      <point x="444" y="390" type="line"/>
      <point x="411" y="445"/>
      <point x="354" y="473"/>
      <point x="288" y="473" type="curve" smooth="yes"/>
      <point x="139" y="473"/>
      <point x="45" y="354"/>
      <point x="45" y="210" type="curve" smooth="yes"/>
      <point x="45" y="88"/>
      <point x="116" y="-14"/>
      <point x="237" y="-14" type="curve" smooth="yes"/>
      <point x="313" y="-14"/>
      <point x="386" y="26"/>
      <point x="443" y="100" type="curve"/>
    </contour>
  </outline>
</glyph>
<glyph name="e" format="1">
  <advance width="498"/>
  <unicode hex="0065"/>
  <outline>
    <contour>
      <point x="450" y="306" type="curve" smooth="yes"/>
      <point x="450" y="413"/>
      <point x="380" y="485"/>
      <point x="283" y="485" type="curve" smooth="yes"/>
      <point x="142" y="485"/>
      <point x="44" y="365"/>
      <point x="44" y="219" type="curve" smooth="yes"/>
      <point x="44" y="95"/>
      <point x="132" y="-17"/>
      <point x="263" y="-17" type="curve" smooth="yes"/>
      <point x="365" y="-17"/>
      <point x="445" y="48"/>
      <point x="445" y="105" type="curve" smooth="yes"/>
      <point x="445" y="112"/>
      <point x="442" y="117"/>
      <point x="437" y="117" type="curve" smooth="yes"/>
      <point x="429" y="117"/>
      <point x="423" y="113"/>
      <point x="418" y="102" type="curve" smooth="yes"/>
      <point x="395" y="59"/>
      <point x="350" y="31"/>
      <point x="289" y="31" type="curve" smooth="yes"/>
      <point x="175" y="31"/>
      <point x="93" y="116"/>
      <point x="93" y="249" type="curve" smooth="yes"/>
      <point x="93" y="355"/>
      <point x="158" y="452"/>
      <point x="263" y="452" type="curve" smooth="yes"/>
      <point x="340" y="452"/>
      <point x="389" y="394"/>
      <point x="389" y="322" type="curve" smooth="yes"/>
      <point x="389" y="306"/>
      <point x="376" y="297"/>
      <point x="360" y="297" type="curve" smooth="yes"/>
      <point x="69" y="297" type="line"/>
      <point x="69" y="269" type="line"/>
      <point x="411" y="269" type="line" smooth="yes"/>
      <point x="433" y="269"/>
      <point x="450" y="282"/>
    </contour>
    <contour>
      <point x="286" y="540" type="move" name="center"/>
    </contour>
  </outline>
</glyph>
<glyph name="h" format="1">
  <advance width="613"/>
  <unicode hex="0068"/>
  <outline>
    <contour>
      <point x="165" y="372" type="line" smooth="yes"/>
      <point x="149" y="393" type="line"/>
      <point x="175" y="416" type="line" smooth="yes"/>
      <point x="236" y="470"/>
      <point x="280" y="486"/>
      <point x="334" y="486" type="curve" smooth="yes"/>
      <point x="403" y="486"/>
      <point x="460" y="440"/>
      <point x="472" y="351" type="curve" smooth="yes"/>
      <point x="511" y="73" type="line" smooth="yes"/>
      <point x="513" y="59"/>
      <point x="522" y="47"/>
      <point x="533" y="43" type="curve" smooth="yes"/>
      <point x="582" y="24" type="line" smooth="yes"/>
      <point x="588" y="22"/>
      <point x="590" y="17"/>
      <point x="590" y="12" type="curve" smooth="yes"/>
      <point x="590" y="5"/>
      <point x="585" y="0"/>
      <point x="572" y="0" type="curve" smooth="yes"/>
      <point x="396" y="0" type="line" smooth="yes"/>
      <point x="385" y="0"/>
      <point x="378" y="6"/>
      <point x="378" y="14" type="curve" smooth="yes"/>
      <point x="378" y="21"/>
      <point x="383" y="26"/>
      <point x="390" y="28" type="curve" smooth="yes"/>
      <point x="439" y="42" type="line" smooth="yes"/>
      <point x="453" y="46"/>
      <point x="461" y="57"/>
      <point x="458" y="77" type="curve" smooth="yes"/>
      <point x="424" y="343" type="line" smooth="yes"/>
      <point x="414" y="417"/>
      <point x="371" y="448"/>
      <point x="314" y="448" type="curve" smooth="yes"/>
      <point x="278" y="448"/>
      <point x="238" y="435"/>
      <point x="184" y="388" type="curve" smooth="yes"/>
    </contour>
    <component base="l" xOffset="2"/>
  </outline>
</glyph>
<glyph name="l" format="1">
  <advance width="293"/>
  <unicode hex="006C"/>
  <outline>
    <contour>
      <point x="177" y="692" type="curve" smooth="yes"/>
      <point x="177" y="77" type="line" smooth="yes"/>
      <point x="177" y="58"/>
      <point x="187" y="47"/>
      <point x="206" y="41" type="curve" smooth="yes"/>
      <point x="241" y="28" type="line" smooth="yes"/>
      <point x="254" y="25"/>
      <point x="259" y="21"/>
      <point x="259" y="13" type="curve" smooth="yes"/>
      <point x="259" y="5"/>
      <point x="254" y="0"/>
      <point x="239" y="0" type="curve" smooth="yes"/>
      <point x="61" y="0" type="line" smooth="yes"/>
      <point x="51" y="0"/>
      <point x="43" y="4"/>
      <point x="43" y="12" type="curve" smooth="yes"/>
      <point x="43" y="20"/>
      <point x="50" y="24"/>
      <point x="61" y="28" type="curve" smooth="yes"/>
      <point x="100" y="42" type="line" smooth="yes"/>
      <point x="120" y="48"/>
      <point x="130" y="58"/>
      <point x="130" y="78" type="curve" smooth="yes"/>
      <point x="130" y="616" type="line" smooth="yes"/>
      <point x="130" y="633"/>
      <point x="119" y="643"/>
      <point x="100" y="643" type="curve" smooth="yes"/>
      <point x="51" y="643" type="line" smooth="yes"/>
      <point x="42" y="643"/>
      <point x="36" y="647"/>
      <point x="36" y="654" type="curve" smooth="yes"/>
      <point x="36" y="661"/>
      <point x="43" y="669"/>
      <point x="50" y="672" type="curve" smooth="yes"/>
      <point x="133" y="704" type="line" smooth="yes"/>
      <point x="145" y="709"/>
      <point x="154" y="713"/>
      <point x="161" y="713" type="curve" smooth="yes"/>
      <point x="171" y="713"/>
      <point x="177" y="705"/>
    </contour>
  </outline>
</glyph>
<glyph name="m" format="1">
  <advance width="924"/>
  <unicode hex="006D"/>
  <outline>
    <contour>
      <point x="361" y="24" type="curve" smooth="yes"/>
      <point x="361" y="8"/>
      <point x="372" y="0"/>
      <point x="386" y="0" type="curve" smooth="yes"/>
      <point x="572" y="0" type="line" smooth="yes"/>
      <point x="589" y="0"/>
      <point x="598" y="13"/>
      <point x="598" y="24" type="curve" smooth="yes"/>
      <point x="598" y="35"/>
      <point x="588" y="43"/>
      <point x="571" y="46" type="curve" smooth="yes"/>
      <point x="551" y="49" type="line" smooth="yes"/>
      <point x="531" y="53"/>
      <point x="519" y="72"/>
      <point x="519" y="98" type="curve" smooth="yes"/>
      <point x="519" y="345" type="line" smooth="yes"/>
      <point x="519" y="425"/>
      <point x="453" y="480"/>
      <point x="373" y="480" type="curve" smooth="yes"/>
      <point x="302" y="480"/>
      <point x="236" y="442"/>
      <point x="176" y="367" type="curve"/>
      <point x="194" y="341" type="line"/>
      <point x="243" y="394"/>
      <point x="288" y="418"/>
      <point x="329" y="418" type="curve" smooth="yes"/>
      <point x="381" y="418"/>
      <point x="432" y="389"/>
      <point x="432" y="302" type="curve" smooth="yes"/>
      <point x="432" y="91" type="line" smooth="yes"/>
      <point x="432" y="71"/>
      <point x="422" y="54"/>
      <point x="406" y="50" type="curve" smooth="yes"/>
      <point x="390" y="47" type="line" smooth="yes"/>
      <point x="372" y="43"/>
      <point x="361" y="36"/>
    </contour>
    <contour>
      <point x="203" y="450" type="line" smooth="yes"/>
      <point x="203" y="468"/>
      <point x="194" y="480"/>
      <point x="179" y="480" type="curve" smooth="yes"/>
      <point x="167" y="480"/>
      <point x="155" y="476"/>
      <point x="137" y="466" type="curve" smooth="yes"/>
      <point x="57" y="423" type="line" smooth="yes"/>
      <point x="44" y="415"/>
      <point x="34" y="406"/>
      <point x="34" y="396" type="curve" smooth="yes"/>
      <point x="34" y="385"/>
      <point x="42" y="381"/>
      <point x="55" y="381" type="curve" smooth="yes"/>
      <point x="85" y="381" type="line" smooth="yes"/>
      <point x="99" y="381"/>
      <point x="115" y="370"/>
      <point x="115" y="345" type="curve" smooth="yes"/>
      <point x="115" y="90" type="line" smooth="yes"/>
      <point x="115" y="60"/>
      <point x="101" y="49"/>
      <point x="83" y="47" type="curve" smooth="yes"/>
      <point x="63" y="43" type="line" smooth="yes"/>
      <point x="48" y="40"/>
      <point x="40" y="34"/>
      <point x="40" y="22" type="curve" smooth="yes"/>
      <point x="40" y="8"/>
      <point x="50" y="0"/>
      <point x="66" y="0" type="curve" smooth="yes"/>
      <point x="247" y="0" type="line" smooth="yes"/>
      <point x="267" y="0"/>
      <point x="277" y="7"/>
      <point x="277" y="21" type="curve" smooth="yes"/>
      <point x="277" y="34"/>
      <point x="268" y="40"/>
      <point x="249" y="44" type="curve" smooth="yes"/>
      <point x="234" y="47" type="line" smooth="yes"/>
      <point x="217" y="50"/>
      <point x="203" y="64"/>
      <point x="203" y="90" type="curve" smooth="yes"/>
    </contour>
    <contour>
      <point x="502" y="342" type="line" smooth="yes"/>
      <point x="527" y="366" type="line" smooth="yes"/>
      <point x="567" y="404"/>
      <point x="599" y="417"/>
      <point x="635" y="417" type="curve" smooth="yes"/>
      <point x="683" y="417"/>
      <point x="716" y="389"/>
      <point x="725" y="323" type="curve" smooth="yes"/>
      <point x="754" y="101" type="line" smooth="yes"/>
      <point x="758" y="63"/>
      <point x="744" y="50"/>
      <point x="716" y="47" type="curve" smooth="yes"/>
      <point x="702" y="45" type="line" smooth="yes"/>
      <point x="688" y="43"/>
      <point x="676" y="39"/>
      <point x="676" y="23" type="curve" smooth="yes"/>
      <point x="676" y="8"/>
      <point x="688" y="0"/>
      <point x="705" y="0" type="curve" smooth="yes"/>
      <point x="883" y="0" type="line" smooth="yes"/>
      <point x="905" y="0"/>
      <point x="913" y="8"/>
      <point x="913" y="21" type="curve" smooth="yes"/>
      <point x="913" y="34"/>
      <point x="902" y="40"/>
      <point x="888" y="44" type="curve" smooth="yes"/>
      <point x="881" y="46" type="line" smooth="yes"/>
      <point x="863" y="50"/>
      <point x="851" y="63"/>
      <point x="848" y="85" type="curve" smooth="yes"/>
      <point x="812" y="346" type="line" smooth="yes"/>
      <point x="800" y="435"/>
      <point x="746" y="480"/>
      <point x="679" y="480" type="curve" smooth="yes"/>
      <point x="618" y="480"/>
      <point x="567" y="455"/>
      <point x="515" y="402" type="curve" smooth="yes"/>
      <point x="484" y="370" type="line"/>
    </contour>
  </outline>
</glyph>
<glyph name="n" format="1">
  <advance width="620"/>
  <unicode hex="006E"/>
  <outline>
    <contour>
      <point x="183" y="465" type="line" smooth="yes"/>
      <point x="183" y="478"/>
      <point x="177" y="486"/>
      <point x="168" y="486" type="curve" smooth="yes"/>
      <point x="160" y="486"/>
      <point x="151" y="483"/>
      <point x="139" y="477" type="curve" smooth="yes"/>
      <point x="56" y="444" type="line" smooth="yes"/>
      <point x="50" y="441"/>
      <point x="42" y="434"/>
      <point x="42" y="426" type="curve" smooth="yes"/>
      <point x="42" y="418"/>
      <point x="49" y="415"/>
      <point x="58" y="415" type="curve" smooth="yes"/>
      <point x="111" y="415" type="line" smooth="yes"/>
      <point x="127" y="415"/>
      <point x="137" y="404"/>
      <point x="137" y="390" type="curve" smooth="yes"/>
      <point x="137" y="76" type="line" smooth="yes"/>
      <point x="137" y="58"/>
      <point x="125" y="48"/>
      <point x="109" y="42" type="curve" smooth="yes"/>
      <point x="68" y="27" type="line" smooth="yes"/>
      <point x="56" y="23"/>
      <point x="50" y="20"/>
      <point x="50" y="12" type="curve" smooth="yes"/>
      <point x="50" y="4"/>
      <point x="57" y="0"/>
      <point x="69" y="0" type="curve" smooth="yes"/>
      <point x="244" y="0" type="line" smooth="yes"/>
      <point x="258" y="0"/>
      <point x="264" y="5"/>
      <point x="264" y="13" type="curve" smooth="yes"/>
      <point x="264" y="21"/>
      <point x="259" y="24"/>
      <point x="247" y="28" type="curve" smooth="yes"/>
      <point x="210" y="42" type="line" smooth="yes"/>
      <point x="192" y="49"/>
      <point x="183" y="59"/>
      <point x="183" y="75" type="curve" smooth="yes"/>
    </contour>
    <contour>
      <point x="172" y="372" type="line" smooth="yes"/>
      <point x="191" y="388" type="line" smooth="yes"/>
      <point x="245" y="435"/>
      <point x="285" y="448"/>
      <point x="321" y="448" type="curve" smooth="yes"/>
      <point x="378" y="448"/>
      <point x="421" y="417"/>
      <point x="430" y="343" type="curve" smooth="yes"/>
      <point x="465" y="77" type="line" smooth="yes"/>
      <point x="467" y="57"/>
      <point x="460" y="46"/>
      <point x="445" y="42" type="curve" smooth="yes"/>
      <point x="397" y="28" type="line" smooth="yes"/>
      <point x="389" y="26"/>
      <point x="384" y="21"/>
      <point x="384" y="14" type="curve" smooth="yes"/>
      <point x="384" y="6"/>
      <point x="392" y="0"/>
      <point x="403" y="0" type="curve" smooth="yes"/>
      <point x="579" y="0" type="line" smooth="yes"/>
      <point x="591" y="0"/>
      <point x="597" y="5"/>
      <point x="597" y="12" type="curve" smooth="yes"/>
      <point x="597" y="17"/>
      <point x="595" y="22"/>
      <point x="589" y="24" type="curve" smooth="yes"/>
      <point x="540" y="43" type="line" smooth="yes"/>
      <point x="528" y="47"/>
      <point x="520" y="59"/>
      <point x="517" y="73" type="curve" smooth="yes"/>
      <point x="479" y="351" type="line" smooth="yes"/>
      <point x="467" y="440"/>
      <point x="409" y="486"/>
      <point x="340" y="486" type="curve" smooth="yes"/>
      <point x="287" y="486"/>
      <point x="243" y="468"/>
      <point x="182" y="414" type="curve" smooth="yes"/>
      <point x="156" y="391" type="line"/>
    </contour>
  </outline>
</glyph>
<glyph name="o" format="1">
  <advance width="587"/>
  <unicode hex="006F"/>
  <outline>
    <contour>
      <point x="301" y="485" type="curve" smooth="yes"/>
      <point x="151" y="485"/>
      <point x="44" y="386"/>
      <point x="44" y="241" type="curve" smooth="yes"/>
      <point x="44" y="98"/>
      <point x="137" y="-17"/>
      <point x="283" y="-17" type="curve" smooth="yes"/>
      <point x="437" y="-17"/>
      <point x="543" y="89"/>
      <point x="543" y="241" type="curve" smooth="yes"/>
      <point x="543" y="380"/>
      <point x="446" y="485"/>
    </contour>
    <contour>
      <point x="487" y="213" type="curve" smooth="yes"/>
      <point x="487" y="108"/>
      <point x="419" y="20"/>
      <point x="309" y="20" type="curve" smooth="yes"/>
      <point x="173" y="20"/>
      <point x="97" y="133"/>
      <point x="97" y="265" type="curve" smooth="yes"/>
      <point x="97" y="368"/>
      <point x="166" y="449"/>
      <point x="277" y="449" type="curve" smooth="yes"/>
      <point x="412" y="449"/>
      <point x="487" y="342"/>
    </contour>
  </outline>
</glyph>
<glyph name="p" format="1">
  <advance width="589"/>
  <unicode hex="0070"/>
  <outline>
    <contour>
      <point x="182" y="453" type="line" smooth="yes"/>
      <point x="182" y="470"/>
      <point x="173" y="480"/>
      <point x="159" y="480" type="curve" smooth="yes"/>
      <point x="146" y="480"/>
      <point x="133" y="474"/>
      <point x="116" y="466" type="curve" smooth="yes"/>
      <point x="40" y="431" type="line" smooth="yes"/>
      <point x="27" y="425"/>
      <point x="17" y="413"/>
      <point x="17" y="404" type="curve" smooth="yes"/>
      <point x="17" y="396"/>
      <point x="23" y="389"/>
      <point x="35" y="389" type="curve" smooth="yes"/>
      <point x="55" y="389" type="line" smooth="yes"/>
      <point x="79" y="389"/>
      <point x="94" y="379"/>
      <point x="94" y="354" type="curve" smooth="yes"/>
      <point x="94" y="-149" type="line" smooth="yes"/>
      <point x="94" y="-169"/>
      <point x="86" y="-192"/>
      <point x="68" y="-195" type="curve" smooth="yes"/>
      <point x="46" y="-199" type="line" smooth="yes"/>
      <point x="31" y="-202"/>
      <point x="21" y="-207"/>
      <point x="20" y="-221" type="curve" smooth="yes"/>
      <point x="19" y="-236"/>
      <point x="28" y="-245"/>
      <point x="51" y="-245" type="curve" smooth="yes"/>
      <point x="245" y="-245" type="line" smooth="yes"/>
      <point x="262" y="-245"/>
      <point x="270" y="-235"/>
      <point x="270" y="-222" type="curve" smooth="yes"/>
      <point x="270" y="-210"/>
      <point x="261" y="-205"/>
      <point x="246" y="-202" type="curve" smooth="yes"/>
      <point x="224" y="-198" type="line" smooth="yes"/>
      <point x="197" y="-193"/>
      <point x="182" y="-178"/>
      <point x="182" y="-147" type="curve" smooth="yes"/>
    </contour>
    <contour>
      <point x="160" y="348" type="line"/>
      <point x="207" y="392"/>
      <point x="248" y="408"/>
      <point x="292" y="408" type="curve" smooth="yes"/>
      <point x="393" y="408"/>
      <point x="464" y="333"/>
      <point x="464" y="217" type="curve" smooth="yes"/>
      <point x="464" y="105"/>
      <point x="398" y="35"/>
      <point x="310" y="35" type="curve" smooth="yes"/>
      <point x="246" y="35"/>
      <point x="199" y="58"/>
      <point x="168" y="107" type="curve"/>
      <point x="133" y="77" type="line"/>
      <point x="178" y="14"/>
      <point x="233" y="-14"/>
      <point x="311" y="-14" type="curve" smooth="yes"/>
      <point x="447" y="-14"/>
      <point x="558" y="98"/>
      <point x="558" y="252" type="curve" smooth="yes"/>
      <point x="558" y="386"/>
      <point x="471" y="480"/>
      <point x="362" y="480" type="curve" smooth="yes"/>
      <point x="272" y="480"/>
      <point x="213" y="443"/>
      <point x="141" y="366" type="curve"/>
    </contour>
  </outline>
</glyph>
<glyph name="s" format="1">
  <advance width="443"/>
  <unicode hex="0073"/>
  <outline>
    <contour>
      <point x="247" y="21" type="curve" smooth="yes"/>
      <point x="185" y="21"/>
      <point x="142" y="44"/>
      <point x="100" y="118" type="curve" smooth="yes"/>
      <point x="93" y="130"/>
      <point x="87" y="135"/>
      <point x="80" y="135" type="curve" smooth="yes"/>
      <point x="72" y="135"/>
      <point x="69" y="132"/>
      <point x="69" y="125" type="curve" smooth="yes"/>
      <point x="69" y="118"/>
      <point x="72" y="110"/>
      <point x="75" y="99" type="curve" smooth="yes"/>
      <point x="110" y="-2" type="line" smooth="yes"/>
      <point x="113" y="-12"/>
      <point x="117" y="-17"/>
      <point x="124" y="-17" type="curve" smooth="yes"/>
      <point x="135" y="-17"/>
      <point x="141" y="3"/>
      <point x="148" y="3" type="curve" smooth="yes"/>
      <point x="169" y="3"/>
      <point x="202" y="-17"/>
      <point x="242" y="-17" type="curve" smooth="yes"/>
      <point x="332" y="-17"/>
      <point x="385" y="34"/>
      <point x="385" y="120" type="curve" smooth="yes"/>
      <point x="385" y="181"/>
      <point x="342" y="231"/>
      <point x="240" y="258" type="curve" smooth="yes"/>
      <point x="149" y="282"/>
      <point x="105" y="315"/>
      <point x="105" y="369" type="curve" smooth="yes"/>
      <point x="105" y="415"/>
      <point x="146" y="450"/>
      <point x="209" y="450" type="curve" smooth="yes"/>
      <point x="256" y="450"/>
      <point x="304" y="424"/>
      <point x="351" y="368" type="curve" smooth="yes"/>
      <point x="361" y="355"/>
      <point x="370" y="349"/>
      <point x="380" y="349" type="curve" smooth="yes"/>
      <point x="390" y="349"/>
      <point x="395" y="355"/>
      <point x="395" y="362" type="curve" smooth="yes"/>
      <point x="395" y="366"/>
      <point x="393" y="371"/>
      <point x="389" y="376" type="curve" smooth="yes"/>
      <point x="329" y="475" type="line" smooth="yes"/>
      <point x="325" y="481"/>
      <point x="321" y="486"/>
      <point x="313" y="486" type="curve" smooth="yes"/>
      <point x="305" y="486"/>
      <point x="300" y="469"/>
      <point x="293" y="469" type="curve" smooth="yes"/>
      <point x="279" y="469"/>
      <point x="253" y="485"/>
      <point x="213" y="485" type="curve" smooth="yes"/>
      <point x="125" y="485"/>
      <point x="56" y="426"/>
      <point x="56" y="346" type="curve" smooth="yes"/>
      <point x="56" y="283"/>
      <point x="102" y="235"/>
      <point x="203" y="210" type="curve" smooth="yes"/>
      <point x="305" y="185"/>
      <point x="340" y="153"/>
      <point x="340" y="102" type="curve" smooth="yes"/>
      <point x="340" y="52"/>
      <point x="305" y="21"/>
    </contour>
  </outline>
</glyph>
<glyph name="sterling" format="1">
  <advance width="532"/>
  <unicode hex="00A3"/>
  <outline>
    <contour>
      <point x="61" y="311" type="curve" smooth="yes"/>
      <point x="61" y="298"/>
      <point x="68" y="290"/>
      <point x="81" y="290" type="curve" smooth="yes"/>
      <point x="343" y="290" type="line" smooth="yes"/>
      <point x="356" y="290"/>
      <point x="365" y="298"/>
      <point x="365" y="311" type="curve" smooth="yes"/>
      <point x="365" y="323"/>
      <point x="356" y="332"/>
      <point x="343" y="332" type="curve" smooth="yes"/>
      <point x="82" y="332" type="line" smooth="yes"/>
      <point x="70" y="332"/>
      <point x="61" y="323"/>
    </contour>
    <contour>
      <point x="131" y="42" type="curve"/>
      <point x="204" y="42"/>
      <point x="289" y="-15"/>
      <point x="371" y="-15" type="curve" smooth="yes"/>
      <point x="447" y="-15"/>
      <point x="498" y="19"/>
      <point x="498" y="86" type="curve" smooth="yes"/>
      <point x="498" y="125"/>
      <point x="471" y="150"/>
      <point x="436" y="150" type="curve" smooth="yes"/>
      <point x="408" y="150"/>
      <point x="389" y="132"/>
      <point x="389" y="107" type="curve" smooth="yes"/>
      <point x="389" y="81" type="line" smooth="yes"/>
      <point x="389" y="60"/>
      <point x="369" y="48"/>
      <point x="343" y="48" type="curve" smooth="yes"/>
      <point x="287" y="48"/>
      <point x="203" y="96"/>
      <point x="123" y="96" type="curve" smooth="yes"/>
      <point x="64" y="96"/>
      <point x="25" y="69"/>
      <point x="25" y="30" type="curve" smooth="yes"/>
      <point x="25" y="3"/>
      <point x="50" y="-15"/>
      <point x="89" y="-15" type="curve" smooth="yes"/>
      <point x="164" y="-15"/>
      <point x="253" y="45"/>
      <point x="253" y="183" type="curve" smooth="yes"/>
      <point x="253" y="278"/>
      <point x="215" y="378"/>
      <point x="215" y="488" type="curve" smooth="yes"/>
      <point x="215" y="571"/>
      <point x="242" y="607"/>
      <point x="291" y="607" type="curve" smooth="yes"/>
      <point x="325" y="607"/>
      <point x="350" y="590"/>
      <point x="350" y="555" type="curve" smooth="yes"/>
      <point x="350" y="531" type="line" smooth="yes"/>
      <point x="350" y="496"/>
      <point x="376" y="472"/>
      <point x="405" y="472" type="curve" smooth="yes"/>
      <point x="440" y="472"/>
      <point x="462" y="494"/>
      <point x="462" y="532" type="curve" smooth="yes"/>
      <point x="462" y="600"/>
      <point x="414" y="651"/>
      <point x="310" y="651" type="curve" smooth="yes"/>
      <point x="198" y="651"/>
      <point x="116" y="577"/>
      <point x="116" y="454" type="curve" smooth="yes"/>
      <point x="116" y="326"/>
      <point x="182" y="212"/>
      <point x="182" y="101" type="curve" smooth="yes"/>
      <point x="182" y="67"/>
      <point x="153" y="51"/>
    </contour>
  </outline>
</glyph>
<glyph name="yen" format="2">
  <advance width="611"/>
  <unicode hex="00A5"/>
  <outline>
    <contour>
      <point x="63" y="206" type="curve" smooth="yes"/>
      <point x="63" y="193"/>
      <point x="70" y="185"/>
      <point x="83" y="185" type="curve" smooth="yes"/>
      <point x="518" y="185" type="line" smooth="yes"/>
      <point x="531" y="185"/>
      <point x="540" y="193"/>
      <point x="540" y="206" type="curve" smooth="yes"/>
      <point x="540" y="218"/>
      <point x="531" y="227"/>
      <point x="518" y="227" type="curve" smooth="yes"/>
      <point x="84" y="227" type="line" smooth="yes"/>
      <point x="72" y="227"/>
      <point x="63" y="218"/>
    </contour>
    <contour>
      <point x="63" y="325" type="curve" smooth="yes"/>
      <point x="63" y="312"/>
      <point x="70" y="304"/>
      <point x="83" y="304" type="curve" smooth="yes"/>
      <point x="267" y="304" type="line"/>
      <point x="239" y="346" type="line"/>
      <point x="84" y="346" type="line" smooth="yes"/>
      <point x="72" y="346"/>
      <point x="63" y="337"/>
    </contour>
    <contour>
      <point x="384" y="304" type="line"/>
      <point x="518" y="304" type="line" smooth="yes"/>
      <point x="531" y="304"/>
      <point x="540" y="312"/>
      <point x="540" y="325" type="curve" smooth="yes"/>
      <point x="540" y="337"/>
      <point x="531" y="346"/>
      <point x="518" y="346" type="curve" smooth="yes"/>
      <point x="419" y="346" type="line"/>
    </contour>
    <component base="Y" xScale="0.9135172474836407" yScale="0.9135172474836407" xOffset="10"/>
  </outline>
</glyph>
<glyph name="ordfeminine" format="1">
  <advance width="447"/>
  <unicode hex="00AA"/>
  <outline>
    <contour>
      <point x="299" y="475" type="curve"/>
      <point x="301" y="504" type="line"/>
      <point x="277" y="511"/>
      <point x="243" y="520"/>
      <point x="207" y="520" type="curve" smooth="yes"/>
      <point x="89" y="520"/>
      <point x="30" y="469"/>
      <point x="30" y="405" type="curve" smooth="yes"/>
      <point x="30" y="345"/>
      <point x="87" y="305"/>
      <point x="157" y="305" type="curve" smooth="yes"/>
      <point x="220" y="305"/>
      <point x="272" y="331"/>
      <point x="314" y="382" type="curve"/>
      <point x="292" y="410" type="line"/>
      <point x="262" y="374"/>
      <point x="226" y="360"/>
      <point x="189" y="360" type="curve" smooth="yes"/>
      <point x="143" y="360"/>
      <point x="118" y="381"/>
      <point x="118" y="419" type="curve" smooth="yes"/>
      <point x="118" y="457"/>
      <point x="143" y="485"/>
      <point x="206" y="485" type="curve" smooth="yes"/>
      <point x="239" y="485"/>
      <point x="268" y="481"/>
    </contour>
    <contour>
      <point x="400" y="356" type="curve"/>
      <point x="368" y="356"/>
      <point x="351" y="369"/>
      <point x="351" y="401" type="curve" smooth="yes"/>
      <point x="351" y="588" type="line" smooth="yes"/>
      <point x="351" y="670"/>
      <point x="304" y="715"/>
      <point x="208" y="715" type="curve" smooth="yes"/>
      <point x="120" y="715"/>
      <point x="49" y="652"/>
      <point x="49" y="610" type="curve" smooth="yes"/>
      <point x="49" y="579"/>
      <point x="69" y="563"/>
      <point x="93" y="563" type="curve" smooth="yes"/>
      <point x="121" y="563"/>
      <point x="140" y="586"/>
      <point x="140" y="617" type="curve" smooth="yes"/>
      <point x="140" y="638" type="line" smooth="yes"/>
      <point x="140" y="663"/>
      <point x="160" y="679"/>
      <point x="195" y="679" type="curve" smooth="yes"/>
      <point x="246" y="679"/>
      <point x="274" y="642"/>
      <point x="274" y="579" type="curve" smooth="yes"/>
      <point x="274" y="389" type="line" smooth="yes"/>
      <point x="274" y="336"/>
      <point x="312" y="305"/>
      <point x="358" y="305" type="curve" smooth="yes"/>
      <point x="394" y="305"/>
      <point x="417" y="323"/>
      <point x="417" y="341" type="curve" smooth="yes"/>
      <point x="417" y="350"/>
      <point x="413" y="355"/>
    </contour>
  </outline>
</glyph>
<glyph name="degree" format="2">
  <advance width="364"/>
  <unicode hex="00B0"/>
  <outline>
    <contour>
      <point x="184" y="650" type="curve" smooth="yes"/>
      <point x="104" y="650"/>
      <point x="50" y="596"/>
      <point x="50" y="529" type="curve" smooth="yes"/>
      <point x="50" y="460"/>
      <point x="104" y="410"/>
      <point x="178" y="410" type="curve" smooth="yes"/>
      <point x="255" y="410"/>
      <point x="314" y="461"/>
      <point x="314" y="536" type="curve" smooth="yes"/>
      <point x="314" y="603"/>
      <point x="260" y="650"/>
    </contour>
    <contour>
      <point x="252" y="515" type="curve" smooth="yes"/>
      <point x="252" y="471"/>
      <point x="227" y="444"/>
      <point x="190" y="444" type="curve" smooth="yes"/>
      <point x="145" y="444"/>
      <point x="110" y="488"/>
      <point x="110" y="544" type="curve" smooth="yes"/>
      <point x="110" y="587"/>
      <point x="137" y="617"/>
      <point x="174" y="617" type="curve" smooth="yes"/>
      <point x="221" y="617"/>
      <point x="252" y="572"/>
    </contour>
  </outline>
</glyph>
<glyph name="twosuperior" format="1">
  <advance width="369"/>
  <unicode hex="00B2"/>
  <outline>
    <contour>
      <point x="172" y="473" type="curve" smooth="yes"/>
      <point x="84" y="421"/>
      <point x="56" y="375"/>
      <point x="56" y="328" type="curve" smooth="yes"/>
      <point x="56" y="309"/>
      <point x="68" y="297"/>
      <point x="85" y="297" type="curve" smooth="yes"/>
      <point x="101" y="297"/>
      <point x="110" y="319"/>
      <point x="140" y="319" type="curve" smooth="yes"/>
      <point x="155" y="319"/>
      <point x="193" y="295"/>
      <point x="227" y="295" type="curve" smooth="yes"/>
      <point x="283" y="295"/>
      <point x="310" y="330"/>
      <point x="310" y="374" type="curve" smooth="yes"/>
      <point x="310" y="385"/>
      <point x="306" y="393"/>
      <point x="297" y="393" type="curve" smooth="yes"/>
      <point x="289" y="393"/>
      <point x="283" y="390"/>
      <point x="276" y="376" type="curve" smooth="yes"/>
      <point x="269" y="360"/>
      <point x="256" y="357"/>
      <point x="230" y="357" type="curve" smooth="yes"/>
      <point x="206" y="357"/>
      <point x="170" y="375"/>
      <point x="149" y="375" type="curve" smooth="yes"/>
      <point x="102" y="375"/>
      <point x="82" y="352"/>
      <point x="82" y="327" type="curve"/>
      <point x="100" y="328" type="line"/>
      <point x="100" y="375"/>
      <point x="121" y="401"/>
      <point x="212" y="457" type="curve" smooth="yes"/>
      <point x="271" y="493"/>
      <point x="291" y="521"/>
      <point x="291" y="567" type="curve" smooth="yes"/>
      <point x="291" y="615"/>
      <point x="256" y="650"/>
      <point x="198" y="650" type="curve" smooth="yes"/>
      <point x="114" y="650"/>
      <point x="60" y="597"/>
      <point x="60" y="559" type="curve" smooth="yes"/>
      <point x="60" y="532"/>
      <point x="74" y="517"/>
      <point x="98" y="517" type="curve" smooth="yes"/>
      <point x="116" y="517"/>
      <point x="133" y="532"/>
      <point x="133" y="554" type="curve" smooth="yes"/>
      <point x="133" y="573" type="line" smooth="yes"/>
      <point x="133" y="595"/>
      <point x="144" y="611"/>
      <point x="173" y="611" type="curve" smooth="yes"/>
      <point x="202" y="611"/>
      <point x="227" y="594"/>
      <point x="227" y="561" type="curve" smooth="yes"/>
      <point x="227" y="521"/>
      <point x="212" y="497"/>
    </contour>
  </outline>
</glyph>
<glyph name="Oslash" format="2">
  <advance width="788"/>
  <unicode hex="00D8"/>
  <outline>
    <contour>
      <point x="772" y="722" type="curve" smooth="yes"/>
      <point x="-4" y="-18" type="line" smooth="yes"/>
      <point x="-12" y="-26"/>
      <point x="-17" y="-34"/>
      <point x="-19" y="-40" type="curve" smooth="yes"/>
      <point x="-21" y="-47"/>
      <point x="-15" y="-54"/>
      <point x="-7" y="-54" type="curve" smooth="yes"/>
      <point x="5" y="-54"/>
      <point x="18" y="-47"/>
      <point x="29" y="-36" type="curve" smooth="yes"/>
      <point x="799" y="700" type="line" smooth="yes"/>
      <point x="810" y="711"/>
      <point x="816" y="719"/>
      <point x="818" y="726" type="curve" smooth="yes"/>
      <point x="820" y="733"/>
      <point x="814" y="740"/>
      <point x="806" y="740" type="curve" smooth="yes"/>
      <point x="795" y="740"/>
      <point x="781" y="731"/>
    </contour>
    <component base="O"/>
  </outline>
</glyph>
<glyph name="eth" format="2">
  <advance width="543"/>
  <unicode hex="00F0"/>
  <outline>
    <contour>
      <point x="118" y="555" type="curve" smooth="yes"/>
      <point x="118" y="546"/>
      <point x="123" y="539"/>
      <point x="134" y="539" type="curve" smooth="yes"/>
      <point x="139" y="539"/>
      <point x="145" y="540"/>
      <point x="153" y="545" type="curve" smooth="yes"/>
      <point x="356" y="678" type="line" smooth="yes"/>
      <point x="370" y="687"/>
      <point x="376" y="693"/>
      <point x="376" y="703" type="curve" smooth="yes"/>
      <point x="376" y="710"/>
      <point x="372" y="718"/>
      <point x="360" y="718" type="curve" smooth="yes"/>
      <point x="352" y="718"/>
      <point x="346" y="716"/>
      <point x="332" y="707" type="curve" smooth="yes"/>
      <point x="139" y="579" type="line" smooth="yes"/>
      <point x="124" y="569"/>
      <point x="118" y="564"/>
    </contour>
    <contour>
      <point x="454" y="292" type="line"/>
      <point x="454" y="394"/>
      <point x="375" y="479"/>
      <point x="272" y="479" type="curve" smooth="yes"/>
      <point x="130" y="479"/>
      <point x="35" y="363"/>
      <point x="35" y="220" type="curve" smooth="yes"/>
      <point x="35" y="84"/>
      <point x="127" y="-15"/>
      <point x="255" y="-15" type="curve" smooth="yes"/>
      <point x="397" y="-15"/>
      <point x="508" y="81"/>
      <point x="508" y="259" type="curve" smooth="yes"/>
      <point x="508" y="460"/>
      <point x="397" y="616"/>
      <point x="162" y="710" type="curve" smooth="yes"/>
      <point x="154" y="713"/>
      <point x="141" y="715"/>
      <point x="133" y="715" type="curve" smooth="yes"/>
      <point x="121" y="715"/>
      <point x="109" y="709"/>
      <point x="109" y="693" type="curve" smooth="yes"/>
      <point x="109" y="684"/>
      <point x="115" y="676"/>
      <point x="130" y="669" type="curve" smooth="yes"/>
      <point x="316" y="585"/>
      <point x="416" y="413"/>
      <point x="416" y="220" type="curve" smooth="yes"/>
      <point x="416" y="98"/>
      <point x="360" y="42"/>
      <point x="284" y="42" type="curve" smooth="yes"/>
      <point x="196" y="42"/>
      <point x="130" y="133"/>
      <point x="130" y="249" type="curve" smooth="yes"/>
      <point x="130" y="358"/>
      <point x="187" y="431"/>
      <point x="270" y="431" type="curve" smooth="yes"/>
      <point x="358" y="431"/>
      <point x="416" y="358"/>
      <point x="416" y="239" type="curve"/>
    </contour>
  </outline>
</glyph>
<glyph name="thorn" format="2">
  <advance width="574"/>
  <unicode hex="00FE"/>
  <outline>
    <contour>
      <point x="182" y="689" type="line" smooth="yes"/>
      <point x="182" y="706"/>
      <point x="173" y="716"/>
      <point x="159" y="716" type="curve" smooth="yes"/>
      <point x="146" y="716"/>
      <point x="133" y="710"/>
      <point x="116" y="702" type="curve" smooth="yes"/>
      <point x="40" y="667" type="line" smooth="yes"/>
      <point x="27" y="661"/>
      <point x="17" y="649"/>
      <point x="17" y="640" type="curve" smooth="yes"/>
      <point x="17" y="632"/>
      <point x="23" y="625"/>
      <point x="35" y="625" type="curve" smooth="yes"/>
      <point x="55" y="625" type="line" smooth="yes"/>
      <point x="79" y="625"/>
      <point x="94" y="615"/>
      <point x="94" y="590" type="curve" smooth="yes"/>
      <point x="94" y="-149" type="line" smooth="yes"/>
      <point x="94" y="-169"/>
      <point x="86" y="-192"/>
      <point x="68" y="-195" type="curve" smooth="yes"/>
      <point x="46" y="-199" type="line" smooth="yes"/>
      <point x="31" y="-202"/>
      <point x="21" y="-207"/>
      <point x="20" y="-221" type="curve" smooth="yes"/>
      <point x="19" y="-236"/>
      <point x="28" y="-245"/>
      <point x="51" y="-245" type="curve" smooth="yes"/>
      <point x="245" y="-245" type="line" smooth="yes"/>
      <point x="262" y="-245"/>
      <point x="270" y="-235"/>
      <point x="270" y="-222" type="curve" smooth="yes"/>
      <point x="270" y="-210"/>
      <point x="261" y="-205"/>
      <point x="246" y="-202" type="curve" smooth="yes"/>
      <point x="224" y="-198" type="line" smooth="yes"/>
      <point x="197" y="-193"/>
      <point x="182" y="-178"/>
      <point x="182" y="-147" type="curve" smooth="yes"/>
    </contour>
    <contour>
      <point x="158" y="343" type="line"/>
      <point x="203" y="389"/>
      <point x="246" y="407"/>
      <point x="290" y="407" type="curve" smooth="yes"/>
      <point x="384" y="407"/>
      <point x="452" y="321"/>
      <point x="452" y="203" type="curve" smooth="yes"/>
      <point x="452" y="107"/>
      <point x="389" y="41"/>
      <point x="300" y="41" type="curve" smooth="yes"/>
      <point x="243" y="41"/>
      <point x="197" y="63"/>
      <point x="168" y="110" type="curve"/>
      <point x="133" y="76" type="line"/>
      <point x="178" y="13"/>
      <point x="230" y="-15"/>
      <point x="310" y="-15" type="curve" smooth="yes"/>
      <point x="438" y="-15"/>
      <point x="546" y="95"/>
      <point x="546" y="251" type="curve" smooth="yes"/>
      <point x="546" y="384"/>
      <point x="463" y="480"/>
      <point x="351" y="480" type="curve" smooth="yes"/>
      <point x="278" y="480"/>
      <point x="195" y="443"/>
      <point x="139" y="361" type="curve"/>
    </contour>
  </outline>
</glyph>
<glyph name="Eogonek" format="2">
  <advance width="623"/>
  <unicode hex="0118"/>
  <outline>
    <contour>
      <point x="533" y="19" type="line"/>
      <point x="512" y="-47"/>
      <point x="389" y="-74"/>
      <point x="389" y="-158" type="curve" smooth="yes"/>
      <point x="389" y="-207"/>
      <point x="429" y="-245"/>
      <point x="495" y="-245" type="curve" smooth="yes"/>
      <point x="557" y="-245"/>
      <point x="594" y="-209"/>
      <point x="594" y="-163" type="curve" smooth="yes"/>
      <point x="594" y="-134"/>
      <point x="578" y="-115"/>
      <point x="554" y="-115" type="curve" smooth="yes"/>
      <point x="538" y="-115"/>
      <point x="525" y="-126"/>
      <point x="525" y="-143" type="curve" smooth="yes"/>
      <point x="525" y="-158"/>
      <point x="540" y="-167"/>
      <point x="540" y="-182" type="curve" smooth="yes"/>
      <point x="540" y="-200"/>
      <point x="528" y="-210"/>
      <point x="512" y="-210" type="curve" smooth="yes"/>
      <point x="488" y="-210"/>
      <point x="468" y="-192"/>
      <point x="468" y="-151" type="curve" smooth="yes"/>
      <point x="468" y="-96"/>
      <point x="535" y="-57"/>
      <point x="549" y="-2" type="curve"/>
    </contour>
    <component base="E"/>
  </outline>
</glyph>
<glyph name="dotlessi" format="2">
  <advance width="294"/>
  <unicode hex="0131"/>
  <outline>
    <contour>
      <point x="178" y="458" type="line" smooth="yes"/>
      <point x="178" y="467"/>
      <point x="174" y="473.0"/>
      <point x="167" y="473" type="curve" smooth="yes"/>
      <point x="162" y="473.0"/>
      <point x="156" y="471"/>
      <point x="147" y="467" type="curve" smooth="yes"/>
      <point x="57" y="431" type="line" smooth="yes"/>
      <point x="54" y="430"/>
      <point x="49.0" y="425"/>
      <point x="49" y="420" type="curve" smooth="yes"/>
      <point x="49.0" y="415.0"/>
      <point x="54" y="413"/>
      <point x="60" y="413" type="curve" smooth="yes"/>
      <point x="116" y="413" type="line" smooth="yes"/>
      <point x="129" y="413"/>
      <point x="137.0" y="404.0"/>
      <point x="137" y="393" type="curve" smooth="yes"/>
      <point x="137" y="61" type="line" smooth="yes"/>
      <point x="137" y="47"/>
      <point x="128" y="39"/>
      <point x="114" y="34" type="curve" smooth="yes"/>
      <point x="68" y="18" type="line" smooth="yes"/>
      <point x="59" y="15"/>
      <point x="55.0" y="12"/>
      <point x="55" y="7" type="curve" smooth="yes"/>
      <point x="55.0" y="2"/>
      <point x="60" y="0"/>
      <point x="69" y="0" type="curve" smooth="yes"/>
      <point x="242" y="0" type="line" smooth="yes"/>
      <point x="250" y="0"/>
      <point x="254.0" y="3.0"/>
      <point x="254" y="8" type="curve" smooth="yes"/>
      <point x="254" y="13"/>
      <point x="251" y="16"/>
      <point x="244" y="18" type="curve" smooth="yes"/>
      <point x="201" y="33" type="line" smooth="yes"/>
      <point x="185" y="39"/>
      <point x="178.0" y="47.0"/>
      <point x="178" y="60" type="curve" smooth="yes"/>
    </contour>
  </outline>
</glyph>
<glyph name="kra" format="1">
  <advance width="586"/>
  <unicode hex="0138"/>
  <outline>
    <contour>
      <point x="329" y="317" type="line"/>
      <point x="265" y="265" type="line"/>
      <point x="390" y="94" type="line" smooth="yes"/>
      <point x="397" y="85"/>
      <point x="401" y="76"/>
      <point x="401" y="66" type="curve" smooth="yes"/>
      <point x="401" y="53"/>
      <point x="395" y="47"/>
      <point x="379" y="43" type="curve" smooth="yes"/>
      <point x="363" y="40"/>
      <point x="352" y="34"/>
      <point x="352" y="20" type="curve" smooth="yes"/>
      <point x="352" y="7"/>
      <point x="364" y="0"/>
      <point x="381" y="0" type="curve" smooth="yes"/>
      <point x="556" y="0" type="line" smooth="yes"/>
      <point x="578" y="0"/>
      <point x="586" y="9"/>
      <point x="586" y="22" type="curve" smooth="yes"/>
      <point x="586" y="35"/>
      <point x="578" y="40"/>
      <point x="566" y="43" type="curve" smooth="yes"/>
      <point x="543" y="48"/>
      <point x="524" y="59"/>
      <point x="503" y="88" type="curve" smooth="yes"/>
    </contour>
    <contour>
      <point x="164" y="215" type="line"/>
      <point x="182" y="180" type="line"/>
      <point x="415" y="363" type="line" smooth="yes"/>
      <point x="458" y="396"/>
      <point x="488" y="412"/>
      <point x="527" y="425" type="curve" smooth="yes"/>
      <point x="539" y="429"/>
      <point x="547" y="434"/>
      <point x="547" y="447" type="curve" smooth="yes"/>
      <point x="547" y="458"/>
      <point x="539" y="466"/>
      <point x="517" y="466" type="curve" smooth="yes"/>
      <point x="363" y="466" type="line" smooth="yes"/>
      <point x="345" y="466"/>
      <point x="334" y="460"/>
      <point x="334" y="446" type="curve" smooth="yes"/>
      <point x="334" y="434"/>
      <point x="342" y="428"/>
      <point x="357" y="424" type="curve" smooth="yes"/>
      <point x="372" y="419"/>
      <point x="377" y="414"/>
      <point x="377" y="404" type="curve" smooth="yes"/>
      <point x="377" y="391"/>
      <point x="369" y="380"/>
      <point x="344" y="360" type="curve" smooth="yes"/>
    </contour>
    <component base="dotlessi"/>
  </outline>
</glyph>
<glyph name="Lslash" format="2">
  <advance width="564"/>
  <unicode hex="0141"/>
  <outline>
    <contour>
      <point x="62" y="254" type="curve" smooth="yes"/>
      <point x="70" y="254"/>
      <point x="84" y="259"/>
      <point x="90" y="261" type="curve" smooth="yes"/>
      <point x="390" y="364" type="line" smooth="yes"/>
      <point x="408" y="370"/>
      <point x="415" y="380"/>
      <point x="415" y="392" type="curve" smooth="yes"/>
      <point x="415" y="399"/>
      <point x="409" y="407"/>
      <point x="399" y="407" type="curve" smooth="yes"/>
      <point x="392" y="407"/>
      <point x="386" y="405"/>
      <point x="379" y="403" type="curve" smooth="yes"/>
      <point x="70" y="298" type="line" smooth="yes"/>
      <point x="53" y="292"/>
      <point x="44" y="282"/>
      <point x="44" y="271" type="curve" smooth="yes"/>
      <point x="44" y="261"/>
      <point x="52" y="254"/>
    </contour>
    <component base="L"/>
  </outline>
</glyph>
<glyph name="eng" format="1">
  <advance width="591"/>
  <unicode hex="014B"/>
  <outline>
    <contour>
      <point x="200" y="450" type="line" smooth="yes"/>
      <point x="200" y="468"/>
      <point x="191" y="480"/>
      <point x="176" y="480" type="curve" smooth="yes"/>
      <point x="164" y="480"/>
      <point x="152" y="476"/>
      <point x="134" y="466" type="curve" smooth="yes"/>
      <point x="54" y="423" type="line" smooth="yes"/>
      <point x="41" y="415"/>
      <point x="31" y="406"/>
      <point x="31" y="396" type="curve" smooth="yes"/>
      <point x="31" y="385"/>
      <point x="39" y="381"/>
      <point x="52" y="381" type="curve" smooth="yes"/>
      <point x="82" y="381" type="line" smooth="yes"/>
      <point x="96" y="381"/>
      <point x="112" y="370"/>
      <point x="112" y="345" type="curve" smooth="yes"/>
      <point x="112" y="90" type="line" smooth="yes"/>
      <point x="112" y="60"/>
      <point x="98" y="49"/>
      <point x="80" y="47" type="curve" smooth="yes"/>
      <point x="60" y="43" type="line" smooth="yes"/>
      <point x="45" y="40"/>
      <point x="37" y="34"/>
      <point x="37" y="22" type="curve" smooth="yes"/>
      <point x="37" y="8"/>
      <point x="47" y="0"/>
      <point x="63" y="0" type="curve" smooth="yes"/>
      <point x="244" y="0" type="line" smooth="yes"/>
      <point x="264" y="0"/>
      <point x="274" y="7"/>
      <point x="274" y="21" type="curve" smooth="yes"/>
      <point x="274" y="34"/>
      <point x="265" y="40"/>
      <point x="246" y="44" type="curve" smooth="yes"/>
      <point x="231" y="47" type="line" smooth="yes"/>
      <point x="214" y="50"/>
      <point x="200" y="64"/>
      <point x="200" y="90" type="curve" smooth="yes"/>
    </contour>
    <contour>
      <point x="495" y="334" type="line" smooth="yes"/>
      <point x="481" y="435"/>
      <point x="427" y="480"/>
      <point x="360" y="480" type="curve" smooth="yes"/>
      <point x="313" y="480"/>
      <point x="267" y="465"/>
      <point x="217" y="426" type="curve" smooth="yes"/>
      <point x="192" y="407" type="line"/>
      <point x="194" y="368" type="line" smooth="yes"/>
      <point x="212" y="380" type="line" smooth="yes"/>
      <point x="244" y="402"/>
      <point x="286" y="420"/>
      <point x="316" y="420" type="curve" smooth="yes"/>
      <point x="367" y="420"/>
      <point x="397" y="389"/>
      <point x="408" y="311" type="curve"/>
      <point x="450" y="-1" type="line" smooth="yes"/>
      <point x="458" y="-54"/>
      <point x="502" y="-94"/>
      <point x="502" y="-138" type="curve" smooth="yes"/>
      <point x="502" y="-171"/>
      <point x="483" y="-194"/>
      <point x="454" y="-194" type="curve" smooth="yes"/>
      <point x="434" y="-194"/>
      <point x="423" y="-183"/>
      <point x="423" y="-163" type="curve" smooth="yes"/>
      <point x="423" y="-146" type="line" smooth="yes"/>
      <point x="423" y="-116"/>
      <point x="402" y="-96"/>
      <point x="369" y="-96" type="curve" smooth="yes"/>
      <point x="335" y="-96"/>
      <point x="314" y="-120"/>
      <point x="314" y="-158" type="curve" smooth="yes"/>
      <point x="314" y="-206"/>
      <point x="365" y="-244"/>
      <point x="426" y="-244" type="curve" smooth="yes"/>
      <point x="506" y="-244"/>
      <point x="566" y="-189"/>
      <point x="566" y="-111" type="curve" smooth="yes"/>
      <point x="566" y="-61"/>
      <point x="543" y="-16"/>
      <point x="537" y="27" type="curve" smooth="yes"/>
    </contour>
  </outline>
</glyph>
<glyph name="Tbar" format="1">
  <advance width="596"/>
  <unicode hex="0166"/>
  <outline>
    <contour>
      <point x="131" y="355" type="curve" smooth="yes"/>
      <point x="131" y="342"/>
      <point x="138" y="334"/>
      <point x="151" y="334" type="curve" smooth="yes"/>
      <point x="441" y="334" type="line" smooth="yes"/>
      <point x="454" y="334"/>
      <point x="463" y="342"/>
      <point x="463" y="355" type="curve" smooth="yes"/>
      <point x="463" y="367"/>
      <point x="454" y="376"/>
      <point x="441" y="376" type="curve" smooth="yes"/>
      <point x="152" y="376" type="line" smooth="yes"/>
      <point x="140" y="376"/>
      <point x="131" y="367"/>
    </contour>
    <component base="T"/>
  </outline>
</glyph>
<glyph name="oogonek" format="1">
  <advance width="575"/>
  <unicode hex="01EB"/>
  <outline>
    <contour>
      <point x="467" y="77" type="line"/>
      <point x="324" y="-33"/>
      <point x="288" y="-74"/>
      <point x="288" y="-130" type="curve" smooth="yes"/>
      <point x="288" y="-185"/>
      <point x="328" y="-223"/>
      <point x="394" y="-223" type="curve" smooth="yes"/>
      <point x="462" y="-223"/>
      <point x="503" y="-191"/>
      <point x="503" y="-151" type="curve" smooth="yes"/>
      <point x="503" y="-130"/>
      <point x="491" y="-117"/>
      <point x="473" y="-117" type="curve" smooth="yes"/>
      <point x="452" y="-117"/>
      <point x="436" y="-133"/>
      <point x="436" y="-159" type="curve" smooth="yes"/>
      <point x="436" y="-178"/>
      <point x="424" y="-188"/>
      <point x="409" y="-188" type="curve" smooth="yes"/>
      <point x="388" y="-188"/>
      <point x="370" y="-168"/>
      <point x="370" y="-123" type="curve" smooth="yes"/>
      <point x="370" y="-63"/>
      <point x="388" y="-24"/>
      <point x="478" y="64" type="curve"/>
    </contour>
    <component base="o"/>
  </outline>
</glyph>
<glyph name="hungarumlaut" format="1">
  <advance width="466"/>
  <unicode hex="02DD"/>
  <outline>
    <contour>
      <point x="234" y="555" type="curve" smooth="yes"/>
      <point x="304" y="643" type="line" smooth="yes"/>
      <point x="315" y="657"/>
      <point x="331" y="667"/>
      <point x="352" y="667" type="curve" smooth="yes"/>
      <point x="391" y="667" type="line" smooth="yes"/>
      <point x="408" y="667"/>
      <point x="416" y="660"/>
      <point x="416" y="648" type="curve" smooth="yes"/>
      <point x="416" y="636"/>
      <point x="407" y="629"/>
      <point x="389" y="615" type="curve" smooth="yes"/>
      <point x="280" y="530" type="line" smooth="yes"/>
      <point x="264" y="518"/>
      <point x="249" y="513"/>
      <point x="239" y="513" type="curve" smooth="yes"/>
      <point x="227" y="513"/>
      <point x="221" y="518"/>
      <point x="221" y="529" type="curve" smooth="yes"/>
      <point x="221" y="538"/>
      <point x="229" y="548"/>
    </contour>
    <contour>
      <point x="63" y="555" type="curve" smooth="yes"/>
      <point x="133" y="643" type="line" smooth="yes"/>
      <point x="144" y="657"/>
      <point x="160" y="667"/>
      <point x="181" y="667" type="curve" smooth="yes"/>
      <point x="220" y="667" type="line" smooth="yes"/>
      <point x="237" y="667"/>
      <point x="245" y="660"/>
      <point x="245" y="648" type="curve" smooth="yes"/>
      <point x="245" y="636"/>
      <point x="236" y="629"/>
      <point x="218" y="615" type="curve" smooth="yes"/>
      <point x="109" y="530" type="line" smooth="yes"/>
      <point x="93" y="518"/>
      <point x="78" y="513"/>
      <point x="68" y="513" type="curve" smooth="yes"/>
      <point x="56" y="513"/>
      <point x="50" y="518"/>
      <point x="50" y="529" type="curve" smooth="yes"/>
      <point x="50" y="538"/>
      <point x="58" y="548"/>
    </contour>
  </outline>
</glyph>
<glyph name="endash" format="2">
  <advance width="635"/>
  <unicode hex="2013"/>
  <outline>
    <contour>
      <point x="50" y="242" type="curve" smooth="yes"/>
      <point x="50" y="227"/>
      <point x="59" y="217"/>
      <point x="75" y="217" type="curve" smooth="yes"/>
      <point x="559" y="217" type="line" smooth="yes"/>
      <point x="575" y="217"/>
      <point x="585" y="227"/>
      <point x="585" y="242" type="curve" smooth="yes"/>
      <point x="585" y="258"/>
      <point x="574" y="269"/>
      <point x="559" y="269" type="curve" smooth="yes"/>
      <point x="76" y="269" type="line" smooth="yes"/>
      <point x="61" y="269"/>
      <point x="50" y="258"/>
    </contour>
  </outline>
</glyph>
<glyph name="dagger" format="1">
  <advance width="463"/>
  <unicode hex="2020"/>
  <outline>
    <contour>
      <point x="218" y="513" type="curve" smooth="yes"/>
      <point x="218" y="436"/>
      <point x="174" y="371"/>
      <point x="180" y="288" type="curve" smooth="yes"/>
      <point x="210" y="-119" type="line" smooth="yes"/>
      <point x="212" y="-144"/>
      <point x="221" y="-156"/>
      <point x="231" y="-156" type="curve" smooth="yes"/>
      <point x="241" y="-156"/>
      <point x="248" y="-145"/>
      <point x="250" y="-120" type="curve" smooth="yes"/>
      <point x="281" y="287" type="line" smooth="yes"/>
      <point x="287" y="371"/>
      <point x="245" y="433"/>
      <point x="245" y="513" type="curve" smooth="yes"/>
      <point x="245" y="596"/>
      <point x="281" y="626"/>
      <point x="281" y="664" type="curve" smooth="yes"/>
      <point x="281" y="695"/>
      <point x="258" y="715"/>
      <point x="230" y="715" type="curve" smooth="yes"/>
      <point x="199" y="715"/>
      <point x="178" y="697"/>
      <point x="178" y="662" type="curve" smooth="yes"/>
      <point x="178" y="626"/>
      <point x="218" y="595"/>
    </contour>
    <contour>
      <point x="232" y="503" type="curve" smooth="yes"/>
      <point x="294" y="503"/>
      <point x="311" y="466"/>
      <point x="356" y="466" type="curve" smooth="yes"/>
      <point x="395" y="466"/>
      <point x="413" y="492"/>
      <point x="413" y="518" type="curve" smooth="yes"/>
      <point x="413" y="541"/>
      <point x="395" y="563"/>
      <point x="360" y="564" type="curve" smooth="yes"/>
      <point x="315" y="565"/>
      <point x="297" y="527"/>
      <point x="232" y="527" type="curve" smooth="yes"/>
      <point x="169" y="527"/>
      <point x="152" y="565"/>
      <point x="106" y="565" type="curve" smooth="yes"/>
      <point x="67" y="565"/>
      <point x="50" y="544"/>
      <point x="50" y="519" type="curve" smooth="yes"/>
      <point x="50" y="489"/>
      <point x="69" y="469"/>
      <point x="107" y="468" type="curve" smooth="yes"/>
      <point x="153" y="467"/>
      <point x="169" y="503"/>
    </contour>
  </outline>
</glyph>
<glyph name="guilsinglleft" format="1">
  <advance width="384"/>
  <unicode hex="2039"/>
  <outline>
    <contour>
      <point x="75" y="248" type="curve" smooth="yes"/>
      <point x="75" y="235"/>
      <point x="84" y="224"/>
      <point x="107" y="203" type="curve" smooth="yes"/>
      <point x="245" y="77" type="line" smooth="yes"/>
      <point x="258" y="65"/>
      <point x="268" y="59"/>
      <point x="279" y="59" type="curve" smooth="yes"/>
      <point x="288" y="59"/>
      <point x="294" y="65"/>
      <point x="294" y="76" type="curve" smooth="yes"/>
      <point x="294" y="89"/>
      <point x="286" y="100"/>
      <point x="273" y="116" type="curve" smooth="yes"/>
      <point x="164" y="248" type="line"/>
      <point x="273" y="380" type="line" smooth="yes"/>
      <point x="286" y="396"/>
      <point x="294" y="407"/>
      <point x="294" y="420" type="curve" smooth="yes"/>
      <point x="294" y="431"/>
      <point x="288" y="437"/>
      <point x="279" y="437" type="curve" smooth="yes"/>
      <point x="268" y="437"/>
      <point x="258" y="431"/>
      <point x="245" y="419" type="curve" smooth="yes"/>
      <point x="107" y="293" type="line" smooth="yes"/>
      <point x="84" y="272"/>
      <point x="75" y="261"/>
    </contour>
  </outline>
</glyph>
<glyph name="fraction" format="1">
  <advance width="643"/>
  <unicode hex="2044"/>
  <outline>
    <contour>
      <point x="575" y="580" type="curve" smooth="yes"/>
      <point x="588" y="594"/>
      <point x="593" y="607"/>
      <point x="593" y="620" type="curve" smooth="yes"/>
      <point x="593" y="635"/>
      <point x="580" y="650"/>
      <point x="563" y="650" type="curve" smooth="yes"/>
      <point x="548" y="650"/>
      <point x="535" y="643"/>
      <point x="525" y="628" type="curve" smooth="yes"/>
      <point x="471" y="550"/>
      <point x="356" y="395"/>
      <point x="324" y="355" type="curve" smooth="yes"/>
      <point x="289" y="310"/>
      <point x="146" y="139"/>
      <point x="55" y="40" type="curve" smooth="yes"/>
      <point x="48" y="32"/>
      <point x="46" y="24"/>
      <point x="46" y="17" type="curve" smooth="yes"/>
      <point x="46" y="4"/>
      <point x="56" y="-16"/>
      <point x="82" y="-16" type="curve" smooth="yes"/>
      <point x="96" y="-16"/>
      <point x="109" y="-12"/>
      <point x="121" y="5" type="curve" smooth="yes"/>
      <point x="188" y="99"/>
      <point x="304" y="264"/>
      <point x="355" y="328" type="curve" smooth="yes"/>
      <point x="395" y="378"/>
      <point x="512" y="512"/>
    </contour>
  </outline>
</glyph>
<glyph name="franc" format="2">
  <advance width="576"/>
  <unicode hex="20A3"/>
  <outline>
    <contour>
      <point x="320" y="39" type="curve" smooth="yes"/>
      <point x="281" y="48" type="line" smooth="yes"/>
      <point x="254" y="54"/>
      <point x="240" y="70"/>
      <point x="240" y="103" type="curve" smooth="yes"/>
      <point x="240" y="588" type="line"/>
      <point x="356" y="588" type="line" smooth="yes"/>
      <point x="397" y="588"/>
      <point x="439" y="565"/>
      <point x="475" y="516" type="curve" smooth="yes"/>
      <point x="492" y="494"/>
      <point x="501" y="487"/>
      <point x="515" y="487" type="curve" smooth="yes"/>
      <point x="525" y="487"/>
      <point x="534" y="497"/>
      <point x="528" y="517" type="curve" smooth="yes"/>
      <point x="494" y="637" type="line" smooth="yes"/>
      <point x="489" y="654"/>
      <point x="485" y="661"/>
      <point x="470" y="661" type="curve" smooth="yes"/>
      <point x="461" y="661"/>
      <point x="453" y="656"/>
      <point x="445" y="648" type="curve" smooth="yes"/>
      <point x="439" y="639"/>
      <point x="427" y="635"/>
      <point x="418" y="635" type="curve" smooth="yes"/>
      <point x="88" y="635" type="line" smooth="yes"/>
      <point x="69" y="635"/>
      <point x="59" y="629"/>
      <point x="59" y="616" type="curve" smooth="yes"/>
      <point x="59" y="603"/>
      <point x="70" y="599"/>
      <point x="89" y="594" type="curve" smooth="yes"/>
      <point x="117" y="587" type="line" smooth="yes"/>
      <point x="133" y="583"/>
      <point x="143" y="572"/>
      <point x="143" y="554" type="curve" smooth="yes"/>
      <point x="143" y="97" type="line" smooth="yes"/>
      <point x="143" y="69"/>
      <point x="132" y="56"/>
      <point x="108" y="48" type="curve" smooth="yes"/>
      <point x="90" y="44" type="line" smooth="yes"/>
      <point x="69" y="37"/>
      <point x="59" y="33"/>
      <point x="59" y="20" type="curve" smooth="yes"/>
      <point x="59" y="7"/>
      <point x="70" y="0"/>
      <point x="88" y="0" type="curve" smooth="yes"/>
      <point x="313" y="0" type="line" smooth="yes"/>
      <point x="329" y="0"/>
      <point x="343" y="7"/>
      <point x="343" y="20" type="curve" smooth="yes"/>
      <point x="343" y="28"/>
      <point x="335" y="35"/>
    </contour>
    <contour>
      <point x="190" y="362" type="line"/>
      <point x="184" y="315" type="line"/>
      <point x="352" y="315" type="line" smooth="yes"/>
      <point x="380" y="315"/>
      <point x="401" y="304"/>
      <point x="408" y="293" type="curve" smooth="yes"/>
      <point x="421" y="273" type="line" smooth="yes"/>
      <point x="428" y="262"/>
      <point x="437" y="255"/>
      <point x="447" y="255" type="curve" smooth="yes"/>
      <point x="461" y="255"/>
      <point x="464" y="266"/>
      <point x="464" y="279" type="curve" smooth="yes"/>
      <point x="464" y="402" type="line" smooth="yes"/>
      <point x="464" y="415"/>
      <point x="459" y="426"/>
      <point x="446" y="426" type="curve" smooth="yes"/>
      <point x="431" y="426"/>
      <point x="424" y="416"/>
      <point x="414" y="399" type="curve" smooth="yes"/>
      <point x="404" y="382" type="line" smooth="yes"/>
      <point x="396" y="368"/>
      <point x="373" y="362"/>
      <point x="349" y="362" type="curve" smooth="yes"/>
    </contour>
    <contour>
      <point x="51" y="186" type="curve" smooth="yes"/>
      <point x="51" y="173"/>
      <point x="58" y="165"/>
      <point x="71" y="165" type="curve" smooth="yes"/>
      <point x="341" y="165" type="line" smooth="yes"/>
      <point x="354" y="165"/>
      <point x="363" y="173"/>
      <point x="363" y="186" type="curve" smooth="yes"/>
      <point x="363" y="198"/>
      <point x="354" y="207"/>
      <point x="341" y="207" type="curve" smooth="yes"/>
      <point x="72" y="207" type="line" smooth="yes"/>
      <point x="60" y="207"/>
      <point x="51" y="198"/>
    </contour>
  </outline>
</glyph>
<glyph name="peso" format="1">
  <advance width="619"/>
  <unicode hex="20B1"/>
  <outline>
    <contour>
      <point x="588" y="345" type="curve" smooth="yes"/>
      <point x="613" y="345"/>
      <point x="624" y="358"/>
      <point x="624" y="372" type="curve" smooth="yes"/>
      <point x="624" y="391"/>
      <point x="612" y="404"/>
      <point x="588" y="405" type="curve" smooth="yes"/>
      <point x="556" y="406"/>
      <point x="517" y="390"/>
      <point x="319" y="390" type="curve" smooth="yes"/>
      <point x="132" y="390"/>
      <point x="98" y="402"/>
      <point x="66" y="402" type="curve" smooth="yes"/>
      <point x="42" y="402"/>
      <point x="30" y="385"/>
      <point x="30" y="368" type="curve" smooth="yes"/>
      <point x="30" y="354"/>
      <point x="41" y="341"/>
      <point x="64" y="341" type="curve" smooth="yes"/>
      <point x="92" y="341"/>
      <point x="129" y="353"/>
      <point x="319" y="353" type="curve" smooth="yes"/>
      <point x="516" y="353"/>
      <point x="556" y="345"/>
    </contour>
    <contour>
      <point x="588" y="446" type="curve" smooth="yes"/>
      <point x="613" y="446"/>
      <point x="624" y="459"/>
      <point x="624" y="473" type="curve" smooth="yes"/>
      <point x="624" y="492"/>
      <point x="612" y="505"/>
      <point x="588" y="506" type="curve" smooth="yes"/>
      <point x="556" y="507"/>
      <point x="517" y="491"/>
      <point x="319" y="491" type="curve" smooth="yes"/>
      <point x="132" y="491"/>
      <point x="98" y="503"/>
      <point x="66" y="503" type="curve" smooth="yes"/>
      <point x="42" y="503"/>
      <point x="30" y="486"/>
      <point x="30" y="469" type="curve" smooth="yes"/>
      <point x="30" y="455"/>
      <point x="41" y="442"/>
      <point x="64" y="442" type="curve" smooth="yes"/>
      <point x="92" y="442"/>
      <point x="129" y="454"/>
      <point x="319" y="454" type="curve" smooth="yes"/>
      <point x="516" y="454"/>
      <point x="556" y="446"/>
    </contour>
    <component base="P" xScale="0.909" yScale="0.909" xOffset="4"/>
  </outline>
</glyph>
<glyph name="turkishlira" format="1">
  <advance width="538"/>
  <unicode hex="20BA"/>
  <outline>
    <contour>
      <point x="298" y="48" type="curve" smooth="yes"/>
      <point x="255" y="48"/>
      <point x="231" y="68"/>
      <point x="231" y="104" type="curve" smooth="yes"/>
      <point x="231" y="535" type="line" smooth="yes"/>
      <point x="231" y="567"/>
      <point x="244" y="582"/>
      <point x="271" y="588" type="curve" smooth="yes"/>
      <point x="309" y="597" type="line" smooth="yes"/>
      <point x="323" y="600"/>
      <point x="331" y="608"/>
      <point x="331" y="616" type="curve" smooth="yes"/>
      <point x="331" y="629"/>
      <point x="317" y="635"/>
      <point x="302" y="635" type="curve" smooth="yes"/>
      <point x="82" y="635" type="line" smooth="yes"/>
      <point x="65" y="635"/>
      <point x="54" y="629"/>
      <point x="54" y="616" type="curve" smooth="yes"/>
      <point x="54" y="603"/>
      <point x="64" y="599"/>
      <point x="84" y="593" type="curve" smooth="yes"/>
      <point x="102" y="588" type="line" smooth="yes"/>
      <point x="125" y="582"/>
      <point x="136" y="568"/>
      <point x="136" y="541" type="curve" smooth="yes"/>
      <point x="136" y="101" type="line" smooth="yes"/>
      <point x="136" y="72"/>
      <point x="125" y="57"/>
      <point x="108" y="52" type="curve" smooth="yes"/>
      <point x="86" y="45" type="line" smooth="yes"/>
      <point x="72" y="41"/>
      <point x="62" y="32"/>
      <point x="62" y="20" type="curve" smooth="yes"/>
      <point x="62" y="8"/>
      <point x="73" y="0"/>
      <point x="91" y="0" type="curve" smooth="yes"/>
      <point x="290" y="0" type="line" smooth="yes"/>
      <point x="425" y="0"/>
      <point x="515" y="74"/>
      <point x="515" y="195" type="curve" smooth="yes"/>
      <point x="515" y="271"/>
      <point x="484" y="303"/>
      <point x="438" y="303" type="curve" smooth="yes"/>
      <point x="403" y="303"/>
      <point x="383" y="279"/>
      <point x="385" y="244" type="curve" smooth="yes"/>
      <point x="386" y="226"/>
      <point x="396" y="212"/>
      <point x="412" y="203" type="curve" smooth="yes"/>
      <point x="421" y="198" type="line" smooth="yes"/>
      <point x="436" y="190"/>
      <point x="440" y="179"/>
      <point x="440" y="164" type="curve" smooth="yes"/>
      <point x="440" y="88"/>
      <point x="386" y="48"/>
    </contour>
    <contour>
      <point x="68" y="375" type="curve" smooth="yes"/>
      <point x="76" y="375"/>
      <point x="90" y="380"/>
      <point x="96" y="382" type="curve" smooth="yes"/>
      <point x="396" y="485" type="line" smooth="yes"/>
      <point x="414" y="491"/>
      <point x="421" y="501"/>
      <point x="421" y="513" type="curve" smooth="yes"/>
      <point x="421" y="520"/>
      <point x="415" y="528"/>
      <point x="405" y="528" type="curve" smooth="yes"/>
      <point x="398" y="528"/>
      <point x="392" y="526"/>
      <point x="385" y="524" type="curve" smooth="yes"/>
      <point x="76" y="419" type="line" smooth="yes"/>
      <point x="59" y="413"/>
      <point x="50" y="403"/>
      <point x="50" y="392" type="curve" smooth="yes"/>
      <point x="50" y="382"/>
      <point x="58" y="375"/>
    </contour>
    <contour>
      <point x="68" y="275" type="curve" smooth="yes"/>
      <point x="76" y="275"/>
      <point x="90" y="280"/>
      <point x="96" y="282" type="curve" smooth="yes"/>
      <point x="396" y="385" type="line" smooth="yes"/>
      <point x="414" y="391"/>
      <point x="421" y="401"/>
      <point x="421" y="413" type="curve" smooth="yes"/>
      <point x="421" y="420"/>
      <point x="415" y="428"/>
      <point x="405" y="428" type="curve" smooth="yes"/>
      <point x="398" y="428"/>
      <point x="392" y="426"/>
      <point x="385" y="424" type="curve" smooth="yes"/>
      <point x="76" y="319" type="line" smooth="yes"/>
      <point x="59" y="313"/>
      <point x="50" y="303"/>
      <point x="50" y="292" type="curve" smooth="yes"/>
      <point x="50" y="282"/>
      <point x="58" y="275"/>
    </contour>
  </outline>
</glyph>
<glyph name="notequal" format="1">
  <advance width="478"/>
  <unicode hex="2260"/>
  <outline>
    <contour>
      <point x="289" y="499" type="curve" smooth="yes"/>
      <point x="131" y="137" type="line" smooth="yes"/>
      <point x="121" y="114"/>
      <point x="129" y="98"/>
      <point x="148" y="97" type="curve" smooth="yes"/>
      <point x="168" y="96"/>
      <point x="179" y="112"/>
      <point x="186" y="129" type="curve" smooth="yes"/>
      <point x="343" y="486" type="line" smooth="yes"/>
      <point x="356" y="515"/>
      <point x="345" y="531"/>
      <point x="325" y="531" type="curve" smooth="yes"/>
      <point x="306" y="531"/>
      <point x="296" y="515"/>
    </contour>
    <component base="equal"/>
  </outline>
</glyph>
<glyph name="brevecomb" format="1">
  <outline>
    <contour>
      <point x="191" y="521" type="curve" smooth="yes"/>
      <point x="262" y="521"/>
      <point x="307" y="579"/>
      <point x="330" y="641" type="curve" smooth="yes"/>
      <point x="331" y="644"/>
      <point x="331" y="646"/>
      <point x="331" y="649" type="curve" smooth="yes"/>
      <point x="331" y="658"/>
      <point x="323" y="664"/>
      <point x="313" y="664" type="curve" smooth="yes"/>
      <point x="307" y="664"/>
      <point x="299" y="661"/>
      <point x="296" y="652" type="curve" smooth="yes"/>
      <point x="279" y="618"/>
      <point x="245" y="599"/>
      <point x="191" y="599" type="curve" smooth="yes"/>
      <point x="137" y="599"/>
      <point x="102" y="616"/>
      <point x="86" y="652" type="curve" smooth="yes"/>
      <point x="82" y="661"/>
      <point x="75" y="664"/>
      <point x="68" y="664" type="curve" smooth="yes"/>
      <point x="59" y="664"/>
      <point x="50" y="658"/>
      <point x="50" y="649" type="curve" smooth="yes"/>
      <point x="50" y="646"/>
      <point x="50" y="644"/>
      <point x="51" y="641" type="curve" smooth="yes"/>
      <point x="74" y="579"/>
      <point x="119" y="521"/>
    </contour>
  </outline>
</glyph>
<glyph name="cedillacomb" format="1">
  <outline>
    <contour>
      <point x="184" y="8" type="line"/>
      <point x="135" y="-95" type="line" smooth="yes"/>
      <point x="131" y="-104"/>
      <point x="143" y="-111"/>
      <point x="151" y="-111" type="curve" smooth="yes"/>
      <point x="158" y="-111"/>
      <point x="164" y="-106"/>
      <point x="176" y="-106" type="curve" smooth="yes"/>
      <point x="201" y="-106"/>
      <point x="216" y="-122"/>
      <point x="216" y="-157" type="curve" smooth="yes"/>
      <point x="216" y="-190"/>
      <point x="198" y="-208"/>
      <point x="172" y="-208" type="curve" smooth="yes"/>
      <point x="151" y="-208"/>
      <point x="139" y="-202"/>
      <point x="139" y="-194" type="curve" smooth="yes"/>
      <point x="139" y="-187" type="line" smooth="yes"/>
      <point x="139" y="-159"/>
      <point x="124" y="-141"/>
      <point x="105" y="-141" type="curve" smooth="yes"/>
      <point x="87" y="-141"/>
      <point x="71" y="-156"/>
      <point x="71" y="-176" type="curve" smooth="yes"/>
      <point x="71" y="-216"/>
      <point x="112" y="-245"/>
      <point x="162" y="-245" type="curve" smooth="yes"/>
      <point x="228" y="-245"/>
      <point x="277" y="-210"/>
      <point x="277" y="-157" type="curve" smooth="yes"/>
      <point x="277" y="-107"/>
      <point x="241" y="-79"/>
      <point x="188" y="-79" type="curve" smooth="yes"/>
      <point x="172" y="-79"/>
      <point x="160" y="-81"/>
      <point x="151" y="-95" type="curve"/>
      <point x="172" y="-90" type="line"/>
      <point x="221" y="9" type="line"/>
    </contour>
    <contour>
      <point x="176" y="23" type="move" name="center"/>
    </contour>
  </outline>
</glyph>
<glyph name="hungarumlautcomb.case" format="1">
  <outline>
    <component base="acutecomb.case"/>
    <component base="acutecomb.case" xOffset="214"/>
    <contour>
      <point x="180" y="684" type="move" name="center"/>
    </contour>
  </outline>
</glyph>
<glyph name="ogonekcomb.case" format="1">
  <outline>
    <contour>
      <point x="203" y="48" type="line"/>
      <point x="52" y="-29"/>
      <point x="4" y="-79"/>
      <point x="4" y="-141" type="curve" smooth="yes"/>
      <point x="4" y="-190"/>
      <point x="44" y="-228"/>
      <point x="110" y="-228" type="curve" smooth="yes"/>
      <point x="172" y="-228"/>
      <point x="209" y="-192"/>
      <point x="209" y="-146" type="curve" smooth="yes"/>
      <point x="209" y="-117"/>
      <point x="193" y="-98"/>
      <point x="169" y="-98" type="curve" smooth="yes"/>
      <point x="153" y="-98"/>
      <point x="140" y="-109"/>
      <point x="140" y="-126" type="curve" smooth="yes"/>
      <point x="140" y="-141"/>
      <point x="155" y="-150"/>
      <point x="155" y="-165" type="curve" smooth="yes"/>
      <point x="155" y="-183"/>
      <point x="143" y="-193"/>
      <point x="127" y="-193" type="curve" smooth="yes"/>
      <point x="103" y="-193"/>
      <point x="83" y="-175"/>
      <point x="83" y="-134" type="curve" smooth="yes"/>
      <point x="83" y="-75"/>
      <point x="121" y="-30"/>
      <point x="215" y="25" type="curve"/>
    </contour>
  </outline>
</glyph>
<glyph name="ringcomb" format="1">
  <outline>
    <contour>
      <point x="156" y="517" type="curve" smooth="yes"/>
      <point x="103" y="517"/>
      <point x="61" y="561"/>
      <point x="61" y="614" type="curve" smooth="yes"/>
      <point x="61" y="667"/>
      <point x="103" y="709"/>
      <point x="156" y="709" type="curve" smooth="yes"/>
      <point x="210" y="709"/>
      <point x="252" y="667"/>
      <point x="252" y="614" type="curve" smooth="yes"/>
      <point x="252" y="561"/>
      <point x="210" y="517"/>
    </contour>
    <contour>
      <point x="157" y="557" type="curve" smooth="yes"/>
      <point x="187" y="557"/>
      <point x="213" y="582"/>
      <point x="213" y="614" type="curve" smooth="yes"/>
      <point x="213" y="645"/>
      <point x="187" y="670"/>
      <point x="157" y="670" type="curve" smooth="yes"/>
      <point x="125" y="670"/>
      <point x="101" y="645"/>
      <point x="101" y="614" type="curve" smooth="yes"/>
      <point x="101" y="582"/>
      <point x="125" y="557"/>
    </contour>
  </outline>
</glyph>
